<svg width="59" height="96" viewBox="0 0 59 96" fill="none" xmlns="http://www.w3.org/2000/svg">
<path d="M52.0001 39.2001C50.3001 39.2001 48.8001 39.8 47.6001 40.8C46.6001 38.1 44.0001 36.2001 41.0001 36.2001C39.3001 36.2001 37.8001 36.8 36.6001 37.8C35.6001 35.1 33.0001 33.2001 30.0001 33.2001C28.5001 33.2001 27.1001 33.7001 26.0001 34.5V13.2C26.0001 9.30005 22.9001 6.20005 19.0001 6.20005C15.1001 6.20005 12.0001 9.30005 12.0001 13.2V40.4001C5.80015 42.9001 1.60015 45.8 1.10015 51.1C0.400147 58.1 2.80015 70.6001 11.9001 82.8V94.3C11.9001 95.1001 12.6001 95.8 13.4001 95.8H46.4002C47.2001 95.8 47.9002 95.1001 47.9002 94.3V82.9C52.8002 78.5 58.9002 73.1001 58.9002 46.3C59.0001 42.4 55.8001 39.2001 52.0001 39.2001ZM46.0001 80.6L45.4002 81.1C45.3002 81.1 45.3001 81.2001 45.2001 81.3C45.1002 81.4 45.1001 81.5 45.1001 81.6C45.0001 81.8 45.0001 82 45.0001 82.2V92.7H15.0001V82.2C15.0001 82 15.0001 81.9 14.9001 81.8C14.9001 81.7001 14.9001 81.7 14.8001 81.6C14.8001 81.5 14.7001 81.5 14.7001 81.4C14.7001 81.4 14.7001 81.3 14.6001 81.3C5.80015 69.7001 3.40015 58 4.10015 51.4001C4.40015 48.2001 6.60015 46 12.0001 43.6V56.5C12.0001 57.3 12.7001 58 13.5001 58C14.3001 58 15.0001 57.3 15.0001 56.5V13.2C15.0001 11 16.8001 9.20005 19.0001 9.20005C21.2001 9.20005 23.0001 11 23.0001 13.2V49.9001C23.0001 50.7001 23.7001 51.4001 24.5001 51.4001C25.3001 51.4001 26.0001 50.7001 26.0001 49.9001V40.3C26.0001 38.1 27.8001 36.3 30.0001 36.3C32.2001 36.3 34.0001 38.1 34.0001 40.3V49.9001C34.0001 50.7001 34.7001 51.4001 35.5001 51.4001C36.3001 51.4001 37.0001 50.7001 37.0001 49.9001V43.3C37.0001 41.1 38.8001 39.3 41.0001 39.3C43.2001 39.3 45.0001 41.1 45.0001 43.3V49.9001C45.0001 50.7001 45.7001 51.4001 46.5001 51.4001C47.3001 51.4001 48.0001 50.7001 48.0001 49.9001V46.3C48.0001 44.1 49.8001 42.3 52.0001 42.3C54.2001 42.3 56.0001 44.1 56.0001 46.3C56.0001 71.8 50.4002 76.7 46.0001 80.6ZM8.20015 19.2001C7.60015 19.2001 7.10015 18.9 6.80015 18.3C6.10015 16.7 5.80015 14.9 5.80015 13.2C5.80015 11.5 6.10015 9.70005 6.80015 8.10005C7.50015 6.50005 8.40015 5.10005 9.60015 3.90005C10.8001 2.70005 12.2001 1.70005 13.8001 1.10005C17.1001 -0.299951 20.8001 -0.299951 24.1001 1.10005C25.7001 1.80005 27.1001 2.70005 28.3001 3.90005C29.5001 5.10005 30.5001 6.50005 31.1001 8.10005C31.8001 9.70005 32.1001 11.5 32.1001 13.2C32.1001 14.9 31.8001 16.7 31.1001 18.3C30.8001 19.1 29.9001 19.4 29.1001 19.1C28.3001 18.8001 28.0001 17.9 28.3001 17.1C28.8001 15.8 29.1001 14.5 29.1001 13.1C29.1001 11.7 28.8001 10.4 28.3001 9.10005C27.8001 8.00005 27.1001 6.90005 26.2001 6.00005C25.3001 5.10005 24.2001 4.30005 23.0001 3.80005C20.5001 2.70005 17.6001 2.70005 15.1001 3.80005C13.8001 4.30005 12.7001 5.00005 11.8001 6.00005C10.8001 6.90005 10.1001 8.00005 9.60015 9.20005C9.10015 10.5 8.80015 11.8 8.80015 13.2C8.80015 14.6 9.10015 15.9001 9.60015 17.2001C9.90015 18 9.60015 18.8001 8.80015 19.2001C8.60015 19.2001 8.40015 19.2001 8.20015 19.2001Z" fill="url(#paint0_linear)"/>
<defs>
<linearGradient id="paint0_linear" x1="43.1452" y1="17.285" x2="-16.4934" y2="105.495" gradientUnits="userSpaceOnUse">
<stop stop-color="#4482CC"/>
<stop offset="1" stop-color="#2525A5"/>
</linearGradient>
</defs>
</svg>
