<svg width="100" height="100" viewBox="0 0 100 100" fill="none" xmlns="http://www.w3.org/2000/svg">
<path d="M93.539 0H6.46148C2.88295 0 0.000244141 2.8827 0.000244141 6.46123V93.5388C0.000244141 97.1173 2.88295 100 6.46148 100H93.539C97.1175 100 100 97.1173 100 93.5388V6.46123C100 2.8827 97.0181 0 93.539 0ZM97.0181 93.5388C97.0181 95.4274 95.4277 97.0179 93.539 97.0179H6.46148C4.57281 97.0179 2.98235 95.4274 2.98235 93.5388V17.0974H97.0181V93.5388ZM97.0181 14.1153H2.98235V6.46123C2.98235 4.57256 4.57281 2.98211 6.46148 2.98211H93.539C95.4277 2.98211 97.0181 4.57256 97.0181 6.46123V14.1153ZM90.6563 10.1392H80.716C79.9207 10.1392 79.2249 9.44334 79.2249 8.64811C79.2249 7.85288 79.9207 7.15706 80.716 7.15706H90.6563C91.4515 7.15706 92.1474 7.85288 92.1474 8.64811C92.1474 9.44334 91.5509 10.1392 90.6563 10.1392ZM72.4655 10.1392H62.5251C61.7299 10.1392 61.034 9.44334 61.034 8.64811C61.034 7.85288 61.7299 7.15706 62.5251 7.15706H72.4655C73.2607 7.15706 73.9565 7.85288 73.9565 8.64811C73.9565 9.44334 73.2607 10.1392 72.4655 10.1392ZM86.9784 46.0239H12.9227C12.1275 46.0239 11.4317 45.328 11.4317 44.5328V27.1372C11.4317 26.3419 12.1275 25.6461 12.9227 25.6461H86.9784C87.7736 25.6461 88.4694 26.3419 88.4694 27.1372V44.5328C88.4694 45.328 87.873 46.0239 86.9784 46.0239ZM14.4138 43.0417H85.4873V28.6282H14.4138V43.0417ZM44.2348 88.4692H12.9227C12.1275 88.4692 11.4317 87.7734 11.4317 86.9781V55.9642C11.4317 55.169 12.1275 54.4732 12.9227 54.4732H44.2348C45.0301 54.4732 45.7259 55.169 45.7259 55.9642V86.9781C45.7259 87.8728 45.0301 88.4692 44.2348 88.4692ZM14.4138 85.4871H42.7438V57.4553H14.4138V85.4871ZM88.0718 54.8708C87.9724 54.7714 87.9724 54.7714 87.873 54.672C87.5748 54.4732 87.2766 54.3738 86.9784 54.3738H55.7657C55.4674 54.3738 55.1692 54.4732 54.871 54.672C54.7716 54.672 54.7716 54.7714 54.6722 54.8708C54.374 55.169 54.2746 55.5666 54.2746 55.9642V86.9781C54.2746 87.0775 54.2746 87.2763 54.374 87.3757C54.374 87.4752 54.374 87.4751 54.4734 87.5746C54.5728 87.7734 54.6722 87.8728 54.7716 88.0716C55.0698 88.3698 55.4674 88.4692 55.8651 88.4692H87.1772C87.5748 88.4692 87.9724 88.2704 88.2706 88.0716C88.37 87.9722 88.5688 87.7734 88.5688 87.5746C88.5688 87.4751 88.5688 87.4752 88.6682 87.3757C88.6682 87.2763 88.7676 87.0775 88.7676 86.9781V55.9642C88.4694 55.5666 88.37 55.169 88.0718 54.8708ZM85.4873 83.3996L73.4595 71.4712L85.4873 59.5427V83.3996ZM83.3998 57.4553L71.372 69.3837L59.3442 57.4553H83.3998ZM57.1573 59.5427L69.1851 71.4712L57.1573 83.3996V59.5427ZM59.3442 85.4871L71.372 73.5586L83.3998 85.4871H59.3442Z" fill="url(#paint0_linear)"/>
<defs>
<linearGradient id="paint0_linear" x1="72.7932" y1="18" x2="25.7627" y2="133.004" gradientUnits="userSpaceOnUse">
<stop stop-color="#4482CC"/>
<stop offset="1" stop-color="#2525A5"/>
</linearGradient>
</defs>
</svg>
