<svg width="88" height="100" viewBox="0 0 88 100" fill="none" xmlns="http://www.w3.org/2000/svg">
<path d="M80.9148 13.8171H67.5947V9.24453C67.5947 8.4493 66.8988 7.75348 66.1036 7.75348H53.4794C52.4853 3.28032 48.4098 0 43.6384 0C38.867 0 34.8909 3.28032 33.7975 7.75348H21.2726C20.4774 7.75348 19.7816 8.4493 19.7816 9.24453V13.8171H6.46148C2.88295 13.8171 0.000244141 16.6998 0.000244141 20.2783V93.5388C0.000244141 97.1173 2.88295 100 6.46148 100H80.9148C84.4933 100 87.376 97.1173 87.376 93.5388V20.2783C87.376 16.6998 84.4933 13.8171 80.9148 13.8171ZM22.7637 10.7356H35.0897C35.8849 10.7356 36.4814 10.1392 36.5808 9.34394C36.9784 5.76541 40.0599 2.98211 43.6384 2.98211C47.3163 2.98211 50.3979 5.76541 50.7955 9.34394C50.8949 10.1392 51.4913 10.7356 52.2865 10.7356H64.6126V19.8807H22.7637V10.7356ZM11.9287 16.7992H19.7816V21.3718C19.7816 22.167 20.4774 22.8628 21.2726 22.8628H66.203C66.9983 22.8628 67.6941 22.167 67.6941 21.3718V16.7992H75.4476V88.668H11.9287V16.7992ZM84.3939 93.5388C84.3939 95.4274 82.8034 97.0179 80.9148 97.0179H6.46148C4.57281 97.0179 2.98235 95.4274 2.98235 93.5388V20.2783C2.98235 18.3897 4.57281 16.7992 6.46148 16.7992H8.94657V90.159C8.94657 90.9543 9.64239 91.6501 10.4376 91.6501H76.9386C77.7338 91.6501 78.4297 90.9543 78.4297 90.159V16.7992H80.9148C82.8034 16.7992 84.3939 18.3897 84.3939 20.2783V93.5388ZM27.6344 46.2227C23.0619 46.2227 19.3839 42.5447 19.3839 37.9722C19.3839 33.3996 23.0619 29.7217 27.6344 29.7217C32.207 29.7217 35.8849 33.3996 35.8849 37.9722C35.8849 42.5447 32.1076 46.2227 27.6344 46.2227ZM27.6344 32.8032C24.7517 32.8032 22.366 35.1889 22.366 38.0716C22.366 40.9543 24.7517 43.34 27.6344 43.34C30.5171 43.34 32.9028 40.9543 32.9028 38.0716C32.9028 35.1889 30.5171 32.8032 27.6344 32.8032ZM67.3959 46.2227C67.0977 46.5209 66.7 46.7197 66.3024 46.7197C66.0042 46.7197 65.6066 46.6203 65.3084 46.3221L62.1275 43.5388L59.2448 46.7197C58.9466 47.0179 58.549 47.2167 58.1513 47.2167C57.7537 47.2167 57.4555 47.1173 57.1573 46.8191C56.5609 46.3221 56.4615 45.328 57.0579 44.7316L59.8412 41.5507L56.6603 38.668C56.0639 38.171 55.9645 37.1769 56.5609 36.5805C57.1573 35.9841 58.0519 35.8847 58.6484 36.4811L61.8293 39.2644L64.6126 36.0835C65.209 35.4871 66.1036 35.3877 66.7 35.9841C67.2965 36.4811 67.3959 37.4751 66.7994 38.0716L64.0162 41.2525L67.1971 44.0358C67.8929 44.6322 67.8929 45.6262 67.3959 46.2227ZM35.4873 69.2843C35.2885 69.8807 34.6921 70.2783 34.0957 70.2783C33.8969 70.2783 33.6981 70.2783 33.5987 70.1789L28.5291 68.2903L26.6404 73.3598C26.4416 73.9563 25.8452 74.3539 25.2488 74.3539C25.0499 74.3539 24.8511 74.3539 24.7517 74.2545C23.9565 73.9563 23.5589 73.0616 23.8571 72.3658L25.7458 67.2962L20.6762 65.4076C19.881 65.1093 19.4833 64.2147 19.7816 63.5189C20.0798 62.7237 20.875 62.326 21.6702 62.6243L26.7398 64.5129L28.6285 59.4433C28.9267 58.6481 29.7219 58.2505 30.5171 58.5487C31.3124 58.8469 31.71 59.7416 31.4118 60.4374L29.5231 65.507L34.5927 67.3956C35.3879 67.6938 35.6861 68.4891 35.4873 69.2843ZM68.1911 75.9443C67.8929 76.4414 67.3959 76.7396 66.8989 76.7396C66.7001 76.7396 66.5012 76.7396 66.203 76.5408L62.5251 74.7515L60.6364 78.5288C60.3382 79.0258 59.8412 79.3241 59.2448 79.3241C59.046 79.3241 58.8472 79.3241 58.549 79.1252C57.8531 78.7276 57.4555 77.833 57.8531 77.1372L59.6424 73.4592L55.9645 71.67C55.1692 71.2724 54.871 70.3777 55.2686 69.6819C55.6662 68.9861 56.5609 68.6879 57.2567 68.9861L60.9346 70.7753L62.7239 67.0974C63.1215 66.4016 64.0161 66.1034 64.712 66.4016C65.4078 66.7992 65.706 67.6938 65.4078 68.3897L63.6185 72.0676L67.2965 73.8569C68.1911 74.3539 68.4893 75.2485 68.1911 75.9443ZM49.205 68.0915C48.8074 75.5467 44.8313 81.3121 38.0718 84.2942C37.9724 84.3936 37.7736 84.493 37.5748 84.493C36.9784 84.493 36.4814 84.1948 36.1831 83.5984C35.8849 82.8032 36.1831 81.9085 36.9784 81.6103C44.6325 78.2306 46.1235 71.5706 46.3223 67.9921C46.6205 62.1272 44.2348 56.0636 40.4575 52.3857L40.9545 56.2624C41.0539 57.0577 40.4575 57.8529 39.6623 57.9523C39.5629 57.9523 39.5629 57.9523 39.4635 57.9523C38.6682 57.9523 38.0718 57.3559 37.9724 56.66L37.0778 49.3042C37.0778 49.2048 37.0778 49.1054 37.0778 49.006C37.0778 49.006 37.0778 48.9066 37.0778 48.8072C37.1772 48.5089 37.2766 48.3101 37.376 48.1113C37.5748 47.9125 37.873 47.7137 38.1712 47.6143C38.2706 47.6143 38.37 47.6143 38.4694 47.6143H38.5688H38.6682L45.9247 47.9125C46.7199 47.9125 47.4157 48.6083 47.3163 49.503C47.3163 50.2982 46.5211 50.994 45.7259 50.8946L42.8432 50.7952C47.0181 55.0696 49.6026 61.7296 49.205 68.0915Z" fill="url(#paint0_linear)"/>
<defs>
<linearGradient id="paint0_linear" x1="63.6037" y1="18" x2="12.0659" y2="128.115" gradientUnits="userSpaceOnUse">
<stop stop-color="#4482CC"/>
<stop offset="1" stop-color="#2525A5"/>
</linearGradient>
</defs>
</svg>
