<svg width="100" height="100" viewBox="0 0 100 100" fill="none" xmlns="http://www.w3.org/2000/svg">
<path d="M93.539 0H6.46148C2.88295 0 0.000244141 2.8827 0.000244141 6.46123V93.5388C0.000244141 97.1173 2.88295 100 6.46148 100H93.539C97.1175 100 100 97.1173 100 93.5388V6.46123C100 2.8827 97.1175 0 93.539 0ZM97.0181 93.5388C97.0181 95.4274 95.4277 97.0179 93.539 97.0179H6.46148C4.57281 97.0179 2.98235 95.4274 2.98235 93.5388V17.0974H97.0181V93.5388ZM97.0181 14.1153H2.98235V6.46123C2.98235 4.57256 4.57281 2.98211 6.46148 2.98211H93.539C95.4277 2.98211 97.0181 4.57256 97.0181 6.46123V14.1153ZM90.6563 10.1392H80.716C79.9207 10.1392 79.2249 9.44334 79.2249 8.64811C79.2249 7.85288 79.9207 7.15706 80.716 7.15706H90.6563C91.4515 7.15706 92.1474 7.85288 92.1474 8.64811C92.1474 9.44334 91.5509 10.1392 90.6563 10.1392ZM72.4655 10.1392H62.5251C61.7299 10.1392 61.034 9.44334 61.034 8.64811C61.034 7.85288 61.7299 7.15706 62.5251 7.15706H72.4655C73.2607 7.15706 73.9565 7.85288 73.9565 8.64811C73.9565 9.44334 73.2607 10.1392 72.4655 10.1392ZM78.7279 69.9801H21.2726C17.6941 69.9801 14.8114 67.0974 14.8114 63.5189V36.3817C14.8114 32.8032 17.6941 29.9205 21.2726 29.9205H78.7279C82.3064 29.9205 85.1891 32.8032 85.1891 36.3817V63.5189C85.1891 67.0974 82.3064 69.9801 78.7279 69.9801ZM21.2726 32.9026C19.3839 32.9026 17.7935 34.493 17.7935 36.3817V63.5189C17.7935 65.4076 19.3839 66.998 21.2726 66.998H78.7279C80.6165 66.998 82.207 65.4076 82.207 63.5189V36.3817C82.207 34.493 80.6165 32.9026 78.7279 32.9026H21.2726ZM43.7378 60.2386C43.4396 60.2386 43.2408 60.1392 42.9426 60.0398C42.4456 59.7416 42.1474 59.2445 42.1474 58.7475V41.0537C42.1474 40.5567 42.4456 40.0596 42.9426 39.7614C43.4396 39.4632 43.9366 39.4632 44.4336 39.7614L59.7418 48.6084C60.2388 48.9066 60.537 49.4036 60.537 49.9006C60.537 50.3976 60.2388 50.8946 59.7418 51.1928L44.4336 60.0398C44.2348 60.1392 44.036 60.2386 43.7378 60.2386ZM45.2289 43.6382V56.163L56.0639 49.9006L45.2289 43.6382ZM83.6981 79.3241H33.0022C32.4058 77.6342 30.716 76.4414 28.8273 76.4414C26.9386 76.4414 25.2488 77.6342 24.6523 79.3241H16.3024C15.5072 79.3241 14.8114 80.0199 14.8114 80.8151C14.8114 81.6103 15.5072 82.3062 16.3024 82.3062H24.6523C25.2488 83.996 26.9386 85.1889 28.8273 85.1889C30.716 85.1889 32.4058 83.996 33.0022 82.3062H83.6981C84.4933 82.3062 85.1891 81.6103 85.1891 80.8151C85.1891 80.0199 84.4933 79.3241 83.6981 79.3241ZM28.8273 82.3062C28.0321 82.3062 27.4356 81.7097 27.4356 80.9145C27.4356 80.1193 28.1315 79.5229 28.8273 79.5229C29.6225 79.5229 30.2189 80.2187 30.2189 80.9145C30.2189 81.6103 29.6225 82.3062 28.8273 82.3062Z" fill="url(#paint0_linear)"/>
<defs>
<linearGradient id="paint0_linear" x1="72.7932" y1="18" x2="25.7627" y2="133.004" gradientUnits="userSpaceOnUse">
<stop stop-color="#4482CC"/>
<stop offset="1" stop-color="#2525A5"/>
</linearGradient>
</defs>
</svg>
