<svg width="18" height="10" viewBox="0 0 18 10" fill="none" xmlns="http://www.w3.org/2000/svg">
<path d="M11.5714 1.28906C11.5714 0.898438 11.692 0.585938 11.933 0.351562C12.1741 0.117188 12.4955 0 12.8571 0C13.1786 0 13.5 0.117188 13.7813 0.351562L17.6384 4.10156C17.8795 4.375 18 4.6875 18 5C18 5.35156 17.8795 5.66406 17.6384 5.89844L13.7813 9.64844C13.5 9.88281 13.1786 10 12.8571 10C12.4955 10 12.1741 9.88281 11.933 9.64844C11.692 9.41406 11.5714 9.10156 11.5714 8.71094V5.66406H0.482143C0.321429 5.66406 0.200893 5.625 0.120536 5.54688C0.0401786 5.46875 0 5.35156 0 5.19531V4.80469C0 4.6875 0.0401786 4.57031 0.120536 4.49219C0.200893 4.41406 0.321429 4.33594 0.482143 4.33594H11.5714V1.28906ZM16.7143 5L12.8571 1.25V8.75L16.7143 5Z" fill="#CF4A11" fill-opacity="0.8"/>
</svg>
