<svg width="1920" height="505" viewBox="0 0 1920 505" fill="none" xmlns="http://www.w3.org/2000/svg">
<g filter="url(#filter0_d)">
<path fill-rule="evenodd" clip-rule="evenodd" d="M1920 90V205C1920 205 1663 355 960 355C257 355 0 205 0 205V90C0 90 257 240 960 240C1663 240 1920 90 1920 90Z" fill="white"/>
</g>
<path fill-rule="evenodd" clip-rule="evenodd" d="M1920 90V205C1920 205 1663 355 960 355C257 355 0 205 0 205V90C0 90 257 240 960 240C1663 240 1920 90 1920 90Z" fill="#4482CC" fill-opacity="0.1"/>
<mask id="mask0" mask-type="alpha" maskUnits="userSpaceOnUse" x="0" y="90" width="1920" height="265">
<path fill-rule="evenodd" clip-rule="evenodd" d="M1920 90V205C1920 205 1663 355 960 355C257 355 0 205 0 205V90C0 90 257 240 960 240C1663 240 1920 90 1920 90Z" fill="#4482CC" fill-opacity="0.1"/>
</mask>
<g mask="url(#mask0)">
<rect x="17" y="72" width="25" height="128" fill="#CF4A11"/>
<rect x="66" y="86" width="25" height="128" fill="#CF4A11"/>
<rect x="115" y="102" width="25" height="128" fill="#CF4A11"/>
<rect x="164" y="117" width="25" height="128" fill="#CF4A11"/>
<rect x="213" y="132" width="25" height="128" fill="#CF4A11"/>
<rect x="262" y="142" width="25" height="128" fill="#CF4A11"/>
<rect x="311" y="152" width="25" height="128" fill="#CF4A11"/>
<rect x="360" y="158" width="25" height="128" fill="#CF4A11"/>
<rect x="409" y="168" width="25" height="128" fill="#CF4A11"/>
<rect x="458" y="175" width="25" height="128" fill="#CF4A11"/>
<rect x="507" y="180" width="25" height="128" fill="#CF4A11"/>
<rect x="556" y="185" width="25" height="128" fill="#CF4A11"/>
<rect x="605" y="195" width="25" height="128" fill="#CF4A11"/>
<rect x="654" y="195" width="25" height="128" fill="#CF4A11"/>
<rect x="703" y="195" width="25" height="128" fill="#CF4A11"/>
<rect x="752" y="195" width="25" height="128" fill="#CF4A11"/>
<rect x="801" y="200" width="25" height="128" fill="#CF4A11"/>
<rect x="850" y="200" width="25" height="128" fill="#CF4A11"/>
<rect x="899" y="200" width="25" height="128" fill="#CF4A11"/>
<rect x="948" y="200" width="25" height="128" fill="#CF4A11"/>
<rect x="997" y="200" width="25" height="128" fill="#CF4A11"/>
<rect x="1046" y="200" width="25" height="128" fill="#CF4A11"/>
<rect x="1095" y="200" width="25" height="128" fill="#CF4A11"/>
<rect x="1144" y="195" width="25" height="128" fill="#CF4A11"/>
<rect x="1193" y="195" width="25" height="128" fill="#CF4A11"/>
<rect x="1242" y="195" width="25" height="128" fill="#CF4A11"/>
<rect x="1291" y="190" width="25" height="128" fill="#CF4A11"/>
<rect x="1340" y="185" width="25" height="128" fill="#CF4A11"/>
<rect x="1389" y="180" width="25" height="128" fill="#CF4A11"/>
<rect x="1438" y="175" width="25" height="128" fill="#CF4A11"/>
<rect x="1487" y="168" width="25" height="128" fill="#CF4A11"/>
<rect x="1536" y="158" width="25" height="128" fill="#CF4A11"/>
<rect x="1585" y="152" width="25" height="128" fill="#CF4A11"/>
<rect x="1634" y="142" width="25" height="128" fill="#CF4A11"/>
<rect x="1683" y="132" width="25" height="128" fill="#CF4A11"/>
<rect x="1732" y="117" width="25" height="128" fill="#CF4A11"/>
<rect x="1781" y="102" width="25" height="128" fill="#CF4A11"/>
<rect x="1830" y="86" width="25" height="128" fill="#CF4A11"/>
<rect x="1879" y="72" width="25" height="128" fill="#CF4A11"/>
<path d="M17 97H42V227.5H17V97Z" fill="url(#paint0_linear)"/>
<path d="M66 111.273H91V241.773H66V111.273Z" fill="url(#paint1_linear)"/>
<path d="M115 127.586H140V258.086H115V127.586Z" fill="url(#paint2_linear)"/>
<path d="M164 142.879H189V273.379H164V142.879Z" fill="url(#paint3_linear)"/>
<path d="M213 158.172H238V288.672H213V158.172Z" fill="url(#paint4_linear)"/>
<path d="M262 168.367H287V298.867H262V168.367Z" fill="url(#paint5_linear)"/>
<path d="M311 178.562H336V309.062H311V178.562Z" fill="url(#paint6_linear)"/>
<path d="M360 184.68H385V315.18H360V184.68Z" fill="url(#paint7_linear)"/>
<path d="M409 194.875H434V325.375H409V194.875Z" fill="url(#paint8_linear)"/>
<path d="M458 202.012H483V332.512H458V202.012Z" fill="url(#paint9_linear)"/>
<path d="M507 207.109H532V337.609H507V207.109Z" fill="url(#paint10_linear)"/>
<path d="M556 212.207H581V342.707H556V212.207Z" fill="url(#paint11_linear)"/>
<path d="M605 222.402H630V352.902H605V222.402Z" fill="url(#paint12_linear)"/>
<path d="M654 222.402H679V352.902H654V222.402Z" fill="url(#paint13_linear)"/>
<path d="M703 222.402H728V352.902H703V222.402Z" fill="url(#paint14_linear)"/>
<path d="M752 222.402H777V352.902H752V222.402Z" fill="url(#paint15_linear)"/>
<path d="M801 227.5H826V358H801V227.5Z" fill="url(#paint16_linear)"/>
<path d="M850 227.5H875V358H850V227.5Z" fill="url(#paint17_linear)"/>
<path d="M899 227.5H924V358H899V227.5Z" fill="url(#paint18_linear)"/>
<path d="M948 227.5H973V358H948V227.5Z" fill="url(#paint19_linear)"/>
<path d="M997 227.5H1022V358H997V227.5Z" fill="url(#paint20_linear)"/>
<path d="M1046 227.5H1071V358H1046V227.5Z" fill="url(#paint21_linear)"/>
<path d="M1095 227.5H1120V358H1095V227.5Z" fill="url(#paint22_linear)"/>
<path d="M1144 222.402H1169V352.902H1144V222.402Z" fill="url(#paint23_linear)"/>
<path d="M1193 222.402H1218V352.902H1193V222.402Z" fill="url(#paint24_linear)"/>
<path d="M1242 222.402H1267V352.902H1242V222.402Z" fill="url(#paint25_linear)"/>
<path d="M1291 217.305H1316V347.805H1291V217.305Z" fill="url(#paint26_linear)"/>
<path d="M1340 212.207H1365V342.707H1340V212.207Z" fill="url(#paint27_linear)"/>
<path d="M1389 207.109H1414V337.609H1389V207.109Z" fill="url(#paint28_linear)"/>
<path d="M1438 202.012H1463V332.512H1438V202.012Z" fill="url(#paint29_linear)"/>
<path d="M1487 194.875H1512V325.375H1487V194.875Z" fill="url(#paint30_linear)"/>
<path d="M1536 184.68H1561V315.18H1536V184.68Z" fill="url(#paint31_linear)"/>
<path d="M1585 178.562H1610V309.062H1585V178.562Z" fill="url(#paint32_linear)"/>
<path d="M1634 168.367H1659V298.867H1634V168.367Z" fill="url(#paint33_linear)"/>
<path d="M1683 158.172H1708V288.672H1683V158.172Z" fill="url(#paint34_linear)"/>
<path d="M1732 142.879H1757V273.379H1732V142.879Z" fill="url(#paint35_linear)"/>
<path d="M1781 127.586H1806V258.086H1781V127.586Z" fill="url(#paint36_linear)"/>
<path d="M1830 111.273H1855V241.773H1830V111.273Z" fill="url(#paint37_linear)"/>
<path d="M1879 97H1904V227.5H1879V97Z" fill="url(#paint38_linear)"/>
</g>
<defs>
<filter id="filter0_d" x="-120" y="0" width="2160" height="505" filterUnits="userSpaceOnUse" color-interpolation-filters="sRGB">
<feFlood flood-opacity="0" result="BackgroundImageFix"/>
<feColorMatrix in="SourceAlpha" type="matrix" values="0 0 0 0 0 0 0 0 0 0 0 0 0 0 0 0 0 0 127 0"/>
<feOffset dy="30"/>
<feGaussianBlur stdDeviation="60"/>
<feColorMatrix type="matrix" values="0 0 0 0 0.168494 0 0 0 0 0.390333 0 0 0 0 0.820961 0 0 0 0.5 0"/>
<feBlend mode="normal" in2="BackgroundImageFix" result="effect1_dropShadow"/>
<feBlend mode="normal" in="SourceGraphic" in2="effect1_dropShadow" result="shape"/>
</filter>
<linearGradient id="paint0_linear" x1="961" y1="176.523" x2="961" y2="358" gradientUnits="userSpaceOnUse">
<stop stop-color="#4482CC"/>
<stop offset="1" stop-color="#2525A5"/>
</linearGradient>
<linearGradient id="paint1_linear" x1="961" y1="176.523" x2="961" y2="358" gradientUnits="userSpaceOnUse">
<stop stop-color="#4482CC"/>
<stop offset="1" stop-color="#2525A5"/>
</linearGradient>
<linearGradient id="paint2_linear" x1="961" y1="176.523" x2="961" y2="358" gradientUnits="userSpaceOnUse">
<stop stop-color="#4482CC"/>
<stop offset="1" stop-color="#2525A5"/>
</linearGradient>
<linearGradient id="paint3_linear" x1="961" y1="176.523" x2="961" y2="358" gradientUnits="userSpaceOnUse">
<stop stop-color="#4482CC"/>
<stop offset="1" stop-color="#2525A5"/>
</linearGradient>
<linearGradient id="paint4_linear" x1="961" y1="176.523" x2="961" y2="358" gradientUnits="userSpaceOnUse">
<stop stop-color="#4482CC"/>
<stop offset="1" stop-color="#2525A5"/>
</linearGradient>
<linearGradient id="paint5_linear" x1="961" y1="176.523" x2="961" y2="358" gradientUnits="userSpaceOnUse">
<stop stop-color="#4482CC"/>
<stop offset="1" stop-color="#2525A5"/>
</linearGradient>
<linearGradient id="paint6_linear" x1="961" y1="176.523" x2="961" y2="358" gradientUnits="userSpaceOnUse">
<stop stop-color="#4482CC"/>
<stop offset="1" stop-color="#2525A5"/>
</linearGradient>
<linearGradient id="paint7_linear" x1="961" y1="176.523" x2="961" y2="358" gradientUnits="userSpaceOnUse">
<stop stop-color="#4482CC"/>
<stop offset="1" stop-color="#2525A5"/>
</linearGradient>
<linearGradient id="paint8_linear" x1="961" y1="176.523" x2="961" y2="358" gradientUnits="userSpaceOnUse">
<stop stop-color="#4482CC"/>
<stop offset="1" stop-color="#2525A5"/>
</linearGradient>
<linearGradient id="paint9_linear" x1="961" y1="176.523" x2="961" y2="358" gradientUnits="userSpaceOnUse">
<stop stop-color="#4482CC"/>
<stop offset="1" stop-color="#2525A5"/>
</linearGradient>
<linearGradient id="paint10_linear" x1="961" y1="176.523" x2="961" y2="358" gradientUnits="userSpaceOnUse">
<stop stop-color="#4482CC"/>
<stop offset="1" stop-color="#2525A5"/>
</linearGradient>
<linearGradient id="paint11_linear" x1="961" y1="176.523" x2="961" y2="358" gradientUnits="userSpaceOnUse">
<stop stop-color="#4482CC"/>
<stop offset="1" stop-color="#2525A5"/>
</linearGradient>
<linearGradient id="paint12_linear" x1="961" y1="176.523" x2="961" y2="358" gradientUnits="userSpaceOnUse">
<stop stop-color="#4482CC"/>
<stop offset="1" stop-color="#2525A5"/>
</linearGradient>
<linearGradient id="paint13_linear" x1="961" y1="176.523" x2="961" y2="358" gradientUnits="userSpaceOnUse">
<stop stop-color="#4482CC"/>
<stop offset="1" stop-color="#2525A5"/>
</linearGradient>
<linearGradient id="paint14_linear" x1="961" y1="176.523" x2="961" y2="358" gradientUnits="userSpaceOnUse">
<stop stop-color="#4482CC"/>
<stop offset="1" stop-color="#2525A5"/>
</linearGradient>
<linearGradient id="paint15_linear" x1="961" y1="176.523" x2="961" y2="358" gradientUnits="userSpaceOnUse">
<stop stop-color="#4482CC"/>
<stop offset="1" stop-color="#2525A5"/>
</linearGradient>
<linearGradient id="paint16_linear" x1="961" y1="176.523" x2="961" y2="358" gradientUnits="userSpaceOnUse">
<stop stop-color="#4482CC"/>
<stop offset="1" stop-color="#2525A5"/>
</linearGradient>
<linearGradient id="paint17_linear" x1="961" y1="176.523" x2="961" y2="358" gradientUnits="userSpaceOnUse">
<stop stop-color="#4482CC"/>
<stop offset="1" stop-color="#2525A5"/>
</linearGradient>
<linearGradient id="paint18_linear" x1="961" y1="176.523" x2="961" y2="358" gradientUnits="userSpaceOnUse">
<stop stop-color="#4482CC"/>
<stop offset="1" stop-color="#2525A5"/>
</linearGradient>
<linearGradient id="paint19_linear" x1="961" y1="176.523" x2="961" y2="358" gradientUnits="userSpaceOnUse">
<stop stop-color="#4482CC"/>
<stop offset="1" stop-color="#2525A5"/>
</linearGradient>
<linearGradient id="paint20_linear" x1="961" y1="176.523" x2="961" y2="358" gradientUnits="userSpaceOnUse">
<stop stop-color="#4482CC"/>
<stop offset="1" stop-color="#2525A5"/>
</linearGradient>
<linearGradient id="paint21_linear" x1="961" y1="176.523" x2="961" y2="358" gradientUnits="userSpaceOnUse">
<stop stop-color="#4482CC"/>
<stop offset="1" stop-color="#2525A5"/>
</linearGradient>
<linearGradient id="paint22_linear" x1="961" y1="176.523" x2="961" y2="358" gradientUnits="userSpaceOnUse">
<stop stop-color="#4482CC"/>
<stop offset="1" stop-color="#2525A5"/>
</linearGradient>
<linearGradient id="paint23_linear" x1="961" y1="176.523" x2="961" y2="358" gradientUnits="userSpaceOnUse">
<stop stop-color="#4482CC"/>
<stop offset="1" stop-color="#2525A5"/>
</linearGradient>
<linearGradient id="paint24_linear" x1="961" y1="176.523" x2="961" y2="358" gradientUnits="userSpaceOnUse">
<stop stop-color="#4482CC"/>
<stop offset="1" stop-color="#2525A5"/>
</linearGradient>
<linearGradient id="paint25_linear" x1="961" y1="176.523" x2="961" y2="358" gradientUnits="userSpaceOnUse">
<stop stop-color="#4482CC"/>
<stop offset="1" stop-color="#2525A5"/>
</linearGradient>
<linearGradient id="paint26_linear" x1="961" y1="176.523" x2="961" y2="358" gradientUnits="userSpaceOnUse">
<stop stop-color="#4482CC"/>
<stop offset="1" stop-color="#2525A5"/>
</linearGradient>
<linearGradient id="paint27_linear" x1="961" y1="176.523" x2="961" y2="358" gradientUnits="userSpaceOnUse">
<stop stop-color="#4482CC"/>
<stop offset="1" stop-color="#2525A5"/>
</linearGradient>
<linearGradient id="paint28_linear" x1="961" y1="176.523" x2="961" y2="358" gradientUnits="userSpaceOnUse">
<stop stop-color="#4482CC"/>
<stop offset="1" stop-color="#2525A5"/>
</linearGradient>
<linearGradient id="paint29_linear" x1="961" y1="176.523" x2="961" y2="358" gradientUnits="userSpaceOnUse">
<stop stop-color="#4482CC"/>
<stop offset="1" stop-color="#2525A5"/>
</linearGradient>
<linearGradient id="paint30_linear" x1="961" y1="176.523" x2="961" y2="358" gradientUnits="userSpaceOnUse">
<stop stop-color="#4482CC"/>
<stop offset="1" stop-color="#2525A5"/>
</linearGradient>
<linearGradient id="paint31_linear" x1="961" y1="176.523" x2="961" y2="358" gradientUnits="userSpaceOnUse">
<stop stop-color="#4482CC"/>
<stop offset="1" stop-color="#2525A5"/>
</linearGradient>
<linearGradient id="paint32_linear" x1="961" y1="176.523" x2="961" y2="358" gradientUnits="userSpaceOnUse">
<stop stop-color="#4482CC"/>
<stop offset="1" stop-color="#2525A5"/>
</linearGradient>
<linearGradient id="paint33_linear" x1="961" y1="176.523" x2="961" y2="358" gradientUnits="userSpaceOnUse">
<stop stop-color="#4482CC"/>
<stop offset="1" stop-color="#2525A5"/>
</linearGradient>
<linearGradient id="paint34_linear" x1="961" y1="176.523" x2="961" y2="358" gradientUnits="userSpaceOnUse">
<stop stop-color="#4482CC"/>
<stop offset="1" stop-color="#2525A5"/>
</linearGradient>
<linearGradient id="paint35_linear" x1="961" y1="176.523" x2="961" y2="358" gradientUnits="userSpaceOnUse">
<stop stop-color="#4482CC"/>
<stop offset="1" stop-color="#2525A5"/>
</linearGradient>
<linearGradient id="paint36_linear" x1="961" y1="176.523" x2="961" y2="358" gradientUnits="userSpaceOnUse">
<stop stop-color="#4482CC"/>
<stop offset="1" stop-color="#2525A5"/>
</linearGradient>
<linearGradient id="paint37_linear" x1="961" y1="176.523" x2="961" y2="358" gradientUnits="userSpaceOnUse">
<stop stop-color="#4482CC"/>
<stop offset="1" stop-color="#2525A5"/>
</linearGradient>
<linearGradient id="paint38_linear" x1="961" y1="176.523" x2="961" y2="358" gradientUnits="userSpaceOnUse">
<stop stop-color="#4482CC"/>
<stop offset="1" stop-color="#2525A5"/>
</linearGradient>
</defs>
</svg>
