<svg width="1920" height="285" viewBox="0 0 1920 285" fill="none" xmlns="http://www.w3.org/2000/svg">
<path d="M1920 285L1880.5 246L1437.5 85L946 26L425.5 87.5L179 154.5L0 285H1920Z" fill="white" stroke="white"/>
<path fill-rule="evenodd" clip-rule="evenodd" d="M1920 265V150C1920 150 1663 0 960 0C257 0 0 150 0 150V265C0 265 257 115 960 115C1663 115 1920 265 1920 265Z" fill="url(#paint0_linear)" fill-opacity="0.05"/>
<path fill-rule="evenodd" clip-rule="evenodd" d="M1920 285V170C1920 170 1663 20 960 20C257 20 0 170 0 170V285C0 285 257 135 960 135C1663 135 1920 285 1920 285Z" fill="white"/>
<defs>
<linearGradient id="paint0_linear" x1="0" y1="150" x2="1920" y2="150" gradientUnits="userSpaceOnUse">
<stop stop-color="#4482CC"/>
<stop offset="1" stop-color="#2525A5"/>
</linearGradient>
</defs>
</svg>
