<svg width="300" height="74" viewBox="0 0 300 74" fill="none" xmlns="http://www.w3.org/2000/svg">
<path d="M33.9762 0.776367L33.3976 2.00769L14.6321 42.2309C18.8481 39.522 23.5602 37.5519 28.5202 36.3206C29.5122 36.0743 30.5869 35.9101 31.6616 35.6639L45.1363 6.93299L33.9762 0.776367Z" fill="url(#paint0_linear)"/>
<path d="M74.8967 67.432L44.7231 0.776367H31.1656L11.7388 42.313H14.5495L32.4883 3.89572L61.0085 67.432H74.8967Z" fill="url(#paint1_linear)"/>
<path d="M74.8967 67.432L44.7231 0.776367H31.1656L11.7388 42.313H14.5495L32.4883 3.89572L61.0085 67.432H74.8967Z" fill="url(#paint2_linear)"/>
<path d="M63.8192 67.432L77.7074 67.2679L47.5338 0.776367H33.9763L63.8192 67.432Z" fill="url(#paint3_linear)"/>
<path d="M15.7068 73.2599H12.8134L3.96802 69.1554C10.2507 56.678 24.2215 47.8125 39.019 47.8125C53.8165 47.8125 67.7872 56.5959 74.07 68.9913L64.9766 73.2599H62.3312C58.1152 64.8869 48.9391 59.5511 39.019 59.5511C29.0989 59.469 19.9228 64.8869 15.7068 73.2599Z" fill="url(#paint4_linear)"/>
<path d="M12.8134 73.2599L0 67.2675C7.02673 52.3274 22.3202 42.8052 38.8537 42.8052C55.3871 42.8052 70.6806 52.4095 77.7073 67.2675L64.8939 73.2599C60.1819 63.2452 49.9311 56.8423 38.8537 56.8423C27.7762 56.7602 17.5255 63.2452 12.8134 73.2599Z" fill="url(#paint5_linear)"/>
<path d="M97.8782 28.2759L108.873 0.776367H114.412L125.489 28.1938H119.62L117.966 24.0073H105.401L103.748 28.1938H97.8782V28.2759ZM111.849 8.08222L107.633 18.5074H115.9L111.849 8.08222ZM135.161 0.776367V23.1044H149.876V28.1938H129.622V0.776367H135.161ZM160.044 0.776367V23.1044H174.759V28.1938H154.505V0.776367H160.044ZM179.388 0.776367H184.927V28.2759H179.388V0.776367ZM188.978 28.2759L200.055 0.776367H205.594L216.589 28.1938H210.719L209.066 24.0073H196.5L194.847 28.1938H188.978V28.2759ZM202.948 8.08222L198.732 18.5074H206.999L202.948 8.08222ZM220.722 28.2759V0.776367H222.541L239.901 18.0149V0.776367H245.439V28.1938H243.373L226.261 11.2016V28.1938H220.722V28.2759ZM249.821 14.4851C249.821 10.627 251.144 7.42552 253.789 4.79869C256.434 2.17187 259.658 0.858455 263.626 0.858455C267.594 0.858455 270.984 2.08978 273.794 4.55243L270.074 8.57475C268.173 7.09716 266.024 6.35837 263.626 6.35837C261.146 6.35837 259.162 7.17925 257.592 8.65684C256.104 10.2165 255.36 12.1045 255.36 14.4851C255.36 17.0298 256.186 19.0821 257.674 20.5596C259.162 22.0372 261.229 22.776 263.709 22.776C266.189 22.776 268.338 22.0372 270.157 20.5596L273.877 24.582C272.472 25.8133 270.901 26.7163 269.248 27.373C267.594 28.0297 265.693 28.2759 263.709 28.2759C259.824 28.2759 256.517 26.9625 253.872 24.3357C251.061 21.7089 249.738 18.4253 249.821 14.4851ZM279.664 28.2759V0.776367H300V5.94793H285.202V11.7762H296.28V16.8657H285.202V23.1044H299.917V28.1938H279.664V28.2759Z" fill="black"/>
<path d="M97.9609 59.4705C97.9609 55.6123 99.2836 52.4109 101.929 49.784C104.574 47.1572 107.798 45.8438 111.766 45.8438C115.734 45.8438 119.124 47.0751 121.934 49.5378L118.214 53.5601C116.313 52.0825 114.164 51.3437 111.766 51.3437C109.286 51.3437 107.302 52.1646 105.732 53.6422C104.244 55.2019 103.5 57.0899 103.5 59.4705C103.5 62.0152 104.326 64.0674 105.814 65.545C107.302 67.0226 109.369 67.7614 111.849 67.7614C114.329 67.7614 116.478 67.0226 118.297 65.545L122.017 69.5673C120.612 70.7986 119.041 71.7016 117.388 72.3583C115.734 73.015 113.833 73.2613 111.849 73.2613C107.964 73.2613 104.657 71.9479 102.012 69.3211C99.2836 66.6942 97.9609 63.4107 97.9609 59.4705ZM126.399 73.2613L137.476 45.8438H143.015L154.092 73.2613H148.223L146.569 69.0748H133.921L132.268 73.2613H126.399ZM140.369 53.0676L136.153 63.4928H144.42L140.369 53.0676ZM158.143 73.2613V45.7617H170.212C176.66 45.7617 179.884 48.3885 179.884 53.6422C179.884 59.1421 176.66 61.851 170.212 61.851H163.682V73.1792H158.143V73.2613ZM163.682 56.7615H171.452C172.61 56.7615 173.436 56.5153 174.015 56.0228C174.594 55.5302 174.924 54.7914 174.924 53.7243C174.924 52.8213 174.676 52.0825 174.098 51.59C173.519 51.0975 172.692 50.8512 171.618 50.8512H163.682V56.7615ZM183.935 45.7617H189.474V73.2613H183.935V45.7617ZM217.581 45.7617V50.8512H208.322V73.1792H202.783V50.9333H193.607V45.8438H217.581V45.7617ZM220.226 73.2613L231.303 45.8438H236.842L247.92 73.2613H242.05L240.397 69.0748H227.831L226.178 73.2613H220.226ZM234.197 53.0676L229.981 63.4928H238.248L234.197 53.0676ZM257.592 45.7617V68.0897H272.306V73.1792H252.053V45.7617H257.592Z" fill="black"/>
<defs>
<linearGradient id="paint0_linear" x1="29.8423" y1="68.2404" x2="29.8423" y2="-0.504538" gradientUnits="userSpaceOnUse">
<stop stop-color="#1D0E46"/>
<stop offset="1" stop-color="#598DC2"/>
</linearGradient>
<linearGradient id="paint1_linear" x1="39.1379" y1="57.9803" x2="65.1921" y2="12.5347" gradientUnits="userSpaceOnUse">
<stop stop-color="#1D0E46"/>
<stop offset="1" stop-color="#598DC2"/>
</linearGradient>
<linearGradient id="paint2_linear" x1="39.1379" y1="57.9803" x2="65.1921" y2="12.5347" gradientUnits="userSpaceOnUse">
<stop stop-color="#1D0E46"/>
<stop offset="1" stop-color="#598DC2"/>
</linearGradient>
<linearGradient id="paint3_linear" x1="55.8434" y1="0.776367" x2="55.8434" y2="67.4633" gradientUnits="userSpaceOnUse">
<stop stop-color="#2C2276"/>
<stop offset="0.0444971" stop-color="#323180"/>
<stop offset="0.1796" stop-color="#43599D"/>
<stop offset="0.3032" stop-color="#4F75B1"/>
<stop offset="0.4104" stop-color="#5687BE"/>
<stop offset="0.4888" stop-color="#598DC2"/>
<stop offset="0.5719" stop-color="#5787BE"/>
<stop offset="0.6813" stop-color="#5077B2"/>
<stop offset="0.8053" stop-color="#445B9F"/>
<stop offset="0.9391" stop-color="#343684"/>
<stop offset="1" stop-color="#2C2276"/>
</linearGradient>
<linearGradient id="paint4_linear" x1="38.9926" y1="47.7655" x2="38.9926" y2="73.2359" gradientUnits="userSpaceOnUse">
<stop stop-color="#598DC2"/>
<stop offset="1" stop-color="#1D0E46"/>
</linearGradient>
<linearGradient id="paint5_linear" x1="0" y1="57.9794" x2="77.7274" y2="57.9794" gradientUnits="userSpaceOnUse">
<stop stop-color="#2C2276"/>
<stop offset="0.0444971" stop-color="#323180"/>
<stop offset="0.1796" stop-color="#43599D"/>
<stop offset="0.3032" stop-color="#4F75B1"/>
<stop offset="0.4104" stop-color="#5687BE"/>
<stop offset="0.4888" stop-color="#598DC2"/>
<stop offset="0.5719" stop-color="#5787BE"/>
<stop offset="0.6813" stop-color="#5077B2"/>
<stop offset="0.8053" stop-color="#445B9F"/>
<stop offset="0.9391" stop-color="#343684"/>
<stop offset="1" stop-color="#2C2276"/>
</linearGradient>
</defs>
</svg>
