<svg width="176" height="329" viewBox="0 0 176 329" fill="none" xmlns="http://www.w3.org/2000/svg">
<path d="M88.097 277.653C67.8983 289.306 67.8983 308.107 88.097 319.76C108.296 331.413 140.769 331.413 160.967 319.76C181.011 308.107 181.011 289.306 160.967 277.653C140.924 266 108.296 266 88.097 277.653Z" fill="#CF4A11" fill-opacity="0.2"/>
<path d="M126.164 232.284L84.0574 256.678V256.367L11.9638 214.882L0 221.719L72.0936 263.359H72.5597L29.9872 288.063L42.2617 294.434L137.506 239.276L126.164 232.284Z" fill="#CF4A11" fill-opacity="0.2"/>
<path d="M102.081 219.078L98.1967 218.767L55.0027 243.782L57.1779 245.025L102.081 219.078Z" fill="#244156"/>
<path d="M44.1263 67.4325L9.47792 222.496L5.12744 220.01L39.7759 64.9465L44.1263 67.4325Z" fill="#244156"/>
<path d="M9.47803 222.496L13.8285 220.01L48.4769 64.9465L44.1264 67.4325L9.47803 222.496Z" fill="#3C5670"/>
<path d="M52.827 152.422V282.47L48.4766 279.984V149.936L52.827 152.422Z" fill="#244156"/>
<path d="M52.8271 282.47L57.1776 279.984V149.936L52.8271 152.422V282.47Z" fill="#3C5670"/>
<path d="M83.1251 135.02L109.073 249.997L104.722 247.511L78.7747 132.534L83.1251 135.02Z" fill="#244156"/>
<path d="M109.072 249.997L113.423 247.511L87.4755 132.534L83.125 135.02L109.072 249.997Z" fill="#3C5670"/>
<path d="M55.624 250.774L104.722 222.496V217.524L55.624 245.802V250.774Z" fill="#3C5670"/>
<path d="M13.8286 50.0306L96.0215 2.48608L109.073 124.921L26.88 172.465L13.8286 50.0306Z" fill="#ADD4F7"/>
<path d="M18.179 52.5163L91.8263 9.94385L104.722 122.435L31.075 165.007L18.179 52.5163Z" fill="#FBFBFB"/>
<path d="M26.8799 172.465L22.5295 169.979L9.47803 47.5447L13.8285 50.0307L26.8799 172.465Z" fill="#8FBAFF"/>
<path d="M96.0214 2.48599L91.8263 0L9.47803 47.5445L13.8285 50.0305L96.0214 2.48599Z" fill="#96C7FB"/>
<path d="M79.3962 84.0576V85.7667L86.8542 86.8544L86.3881 84.9899L79.3962 84.0576Z" fill="#3A3E5F"/>
<path d="M86.8542 82.1928L82.3484 81.5713L79.3962 84.0573L85.6112 84.9895L86.8542 82.1928Z" fill="#111224"/>
<path d="M130.359 115.288C113.268 98.1965 109.073 81.5715 102.392 86.5434C95.5552 91.5154 96.0213 93.6906 99.1288 96.6427C100.061 97.7304 103.013 98.6626 104.101 100.216C112.025 111.093 123.678 131.447 126.785 130.359C130.359 129.116 130.359 115.288 130.359 115.288Z" fill="#F4AC8D"/>
<path d="M127.251 311.68C127.251 312.302 127.096 312.923 126.941 313.545C126.008 314.943 119.793 320.381 113.889 316.652C110.316 314.322 107.053 311.525 98.9733 309.194C94.312 307.951 85.4557 304.844 82.9698 298.474C81.8821 295.832 82.0375 293.812 83.2805 292.569C84.9896 290.705 88.874 290.239 94.0013 291.482C103.479 293.657 108.296 294.745 116.22 291.637L126.008 301.426C126.475 302.979 127.407 308.107 127.251 311.68Z" fill="#5C87FA"/>
<path d="M107.519 298.94C106.897 299.406 106.897 300.027 107.674 300.338C108.451 300.649 109.539 300.494 110.16 300.027C110.782 299.561 110.781 298.94 110.005 298.629C109.228 298.474 108.14 298.474 107.519 298.94Z" fill="#395297"/>
<path d="M101.304 298.785C100.527 298.94 100.372 299.561 100.993 300.183C101.615 300.649 102.702 300.96 103.479 300.804C104.256 300.649 104.411 300.027 103.79 299.406C103.168 298.784 102.081 298.474 101.304 298.785Z" fill="#395297"/>
<path d="M95.5551 297.852C94.7782 298.008 94.6228 298.629 95.2443 299.25C95.8658 299.717 96.9534 300.027 97.7303 299.872C98.5072 299.717 98.6626 299.095 98.0411 298.474C97.2642 297.852 96.1766 297.541 95.5551 297.852Z" fill="#395297"/>
<path d="M90.4276 295.832C89.6508 295.988 89.4954 296.609 90.1169 297.231C90.7384 297.697 91.826 298.008 92.6029 297.852C93.3798 297.697 93.5351 297.075 92.9136 296.454C92.2921 295.832 91.2045 295.677 90.4276 295.832Z" fill="#395297"/>
<path d="M109.694 299.562C109.694 299.562 109.383 294.434 113.423 292.414C113.423 292.414 113.112 291.327 110.937 291.948C108.917 292.57 107.519 297.697 108.14 299.562C108.14 299.562 109.073 300.028 109.694 299.562Z" fill="#FBFBFD"/>
<path d="M103.013 299.872C103.013 299.872 103.479 293.812 107.83 293.346C107.83 293.346 107.208 292.414 105.344 292.569C103.479 292.725 100.993 297.075 101.459 299.406C101.459 299.406 102.391 300.494 103.013 299.872Z" fill="#FBFBFD"/>
<path d="M97.575 298.784C97.575 298.784 98.1965 293.191 101.77 292.88C101.77 292.88 101.459 291.637 98.9733 292.414C96.4874 293.191 96.0212 298.318 96.0212 298.318C96.0212 298.318 96.4874 299.095 97.575 298.784Z" fill="#FBFBFD"/>
<path d="M97.4195 291.948C97.4195 291.948 92.4476 292.88 92.2922 297.386C92.2922 297.386 90.7385 297.075 90.4277 296.609C90.4277 296.298 92.4476 291.948 94.7782 291.482C97.1088 290.86 97.4195 291.948 97.4195 291.948Z" fill="#FBFBFD"/>
<path d="M127.251 311.681C127.251 312.302 127.096 312.924 126.941 313.545C126.008 314.943 119.793 320.382 113.889 316.653C110.316 314.322 107.053 311.525 98.9733 309.195C94.312 307.952 85.4557 304.844 82.9698 298.474C81.8821 295.832 82.0375 293.813 83.2805 292.57C81.416 295.522 84.2128 298.94 88.0971 302.047C91.9815 305.155 103.013 308.262 107.208 309.661C111.559 311.059 114.977 315.099 118.706 315.72C122.59 316.186 127.251 311.681 127.251 311.681Z" fill="#395297"/>
<path d="M85.611 87.3203C84.2127 84.8343 84.6788 82.6591 87.0094 80.95L113.112 86.388C115.598 86.8542 114.2 93.2245 111.714 92.7584L85.611 87.3203Z" fill="#5C87FA"/>
<path d="M162.987 294.434C162.987 295.056 162.832 295.677 162.677 296.299C161.744 297.697 155.529 303.135 149.625 299.406C146.052 297.076 142.789 294.279 134.709 291.948C130.048 290.705 121.192 287.598 118.706 281.228C117.618 278.586 117.774 276.566 119.017 275.323C120.726 273.459 124.61 272.993 129.737 274.236C139.215 276.411 144.032 277.499 151.956 274.391L161.744 284.18C162.211 285.733 163.143 291.016 162.987 294.434Z" fill="#5C87FA"/>
<path d="M143.255 281.849C142.633 282.315 142.633 282.937 143.41 283.247C144.187 283.558 145.275 283.403 145.896 282.936C146.518 282.47 146.518 281.849 145.741 281.538C145.119 281.227 143.876 281.383 143.255 281.849Z" fill="#395297"/>
<path d="M137.04 281.538C136.263 281.693 136.108 282.315 136.729 282.936C137.351 283.402 138.438 283.713 139.215 283.558C139.992 283.402 140.147 282.781 139.526 282.159C138.904 281.538 137.817 281.383 137.04 281.538Z" fill="#395297"/>
<path d="M131.291 280.606C130.514 280.761 130.359 281.383 130.98 282.004C131.602 282.471 132.69 282.781 133.466 282.626C134.243 282.471 134.399 281.849 133.777 281.228C133.156 280.606 132.068 280.451 131.291 280.606Z" fill="#395297"/>
<path d="M126.164 278.742C125.387 278.897 125.231 279.518 125.853 280.14C126.474 280.606 127.562 280.917 128.339 280.761C129.116 280.606 129.271 279.985 128.65 279.363C128.028 278.742 126.941 278.431 126.164 278.742Z" fill="#395297"/>
<path d="M145.43 282.315C145.43 282.315 145.119 277.188 149.159 275.168C149.159 275.168 148.848 274.08 146.673 274.702C144.653 275.323 143.255 280.45 143.877 282.315C143.877 282.315 144.809 282.936 145.43 282.315Z" fill="#FBFBFD"/>
<path d="M138.749 282.781C138.749 282.781 139.215 276.722 143.566 276.256C143.566 276.256 142.944 275.323 141.08 275.479C139.215 275.634 136.729 279.984 137.195 282.315C137.351 282.16 138.128 283.403 138.749 282.781Z" fill="#FBFBFD"/>
<path d="M133.311 281.694C133.311 281.694 133.933 276.1 137.506 275.79C137.506 275.79 137.195 274.547 134.709 275.324C132.223 276.1 131.757 281.228 131.757 281.228C131.757 281.228 132.223 282.005 133.311 281.694Z" fill="#FBFBFD"/>
<path d="M133.155 274.857C133.155 274.857 128.183 275.789 128.028 280.295C128.028 280.295 126.474 279.984 126.164 279.518C126.164 279.208 128.183 274.857 130.514 274.391C132.845 273.77 133.155 274.857 133.155 274.857Z" fill="#FBFBFD"/>
<path d="M162.987 294.434C162.987 295.056 162.832 295.677 162.677 296.299C161.744 297.697 155.529 303.135 149.625 299.406C146.052 297.076 142.789 294.279 134.709 291.948C130.048 290.705 121.192 287.598 118.706 281.227C117.618 278.586 117.774 276.566 119.017 275.323C117.152 278.275 119.949 281.694 123.833 284.801C127.718 287.909 138.749 291.016 142.944 292.414C147.295 293.813 150.713 297.852 154.442 298.474C158.482 298.94 162.987 294.434 162.987 294.434Z" fill="#395297"/>
<path d="M113.268 175.728V300.805C113.268 300.805 119.172 305.932 126.009 301.271C130.514 281.072 135.952 260.563 132.379 249.22L138.594 202.763L150.091 284.956C150.091 284.956 158.171 289.773 161.9 284.024C161.9 284.024 163.454 270.04 164.075 257.921C164.852 245.336 164.852 242.384 160.657 235.392C161.123 214.261 159.725 191.577 158.637 182.409C157.549 173.708 154.131 165.008 154.131 165.008L113.268 175.728Z" fill="#3A3E5F"/>
<path d="M121.969 114.2C121.969 114.2 115.598 115.598 113.268 126.785C111.559 135.486 112.025 143.1 112.646 161.278C112.802 167.959 113.268 175.417 113.268 175.417C113.268 175.417 146.829 181.166 154.597 165.473C154.597 165.473 153.043 149.004 155.063 141.08C158.637 120.26 154.908 106.587 147.295 105.81C138.128 105.188 121.969 114.2 121.969 114.2Z" fill="#E94643"/>
<path d="M128.495 101.149C128.495 101.925 128.805 114.821 128.805 114.821C128.805 114.821 130.981 118.706 136.108 118.55C141.235 118.395 143.255 114.2 143.255 114.2L142.944 100.216L128.495 101.149Z" fill="#F4AC8D"/>
<path d="M128.339 92.6029C128.339 93.3798 128.65 106.276 128.65 106.276C128.65 106.276 130.825 110.16 135.952 110.005C141.08 109.849 143.1 105.654 143.1 105.654L142.789 91.6707L128.339 92.6029Z" fill="#DB825E"/>
<path d="M135.486 104.101C126.63 104.256 119.328 97.2646 119.017 88.4083L118.861 77.8428C118.706 68.9865 125.698 61.6839 134.554 61.3731C143.411 61.2178 150.713 68.2096 151.024 77.0659L151.179 87.6314C151.335 96.6431 144.343 103.946 135.486 104.101Z" fill="#F0B89F"/>
<path d="M129.427 91.9818C129.427 91.9818 134.554 92.7587 133.933 85.7668C133.311 78.775 129.271 80.7948 128.184 83.1254C127.096 85.4561 126.785 88.4082 126.785 88.4082L124.765 87.4759C124.765 87.4759 125.387 81.1056 123.989 78.9303C122.59 76.9105 122.124 77.9981 118.706 72.8708C115.443 67.7434 116.997 61.0623 120.415 57.3334C120.415 57.3334 121.192 62.7715 123.523 63.5483C123.523 63.5483 121.969 58.5763 126.009 54.5366C126.009 54.5366 126.941 59.0425 133.311 59.0425C139.681 59.0425 149.315 59.0425 153.665 68.5203C155.685 73.0261 155.84 98.9736 145.586 104.412C138.749 107.985 130.825 106.432 128.494 102.703C130.204 98.6629 129.427 91.9818 129.427 91.9818Z" fill="#3A3E5F"/>
<path d="M116.375 119.949C109.383 120.415 111.559 144.498 111.403 164.541C110.316 177.127 103.479 196.859 101.77 205.871C100.061 214.883 104.101 217.524 108.762 214.572C113.423 211.775 114.977 203.696 118.24 193.596C121.658 183.031 125.231 171.533 124.455 145.43C123.988 128.961 124.455 119.483 116.375 119.949Z" fill="#F4AC8D"/>
<path d="M106.121 189.091C105.188 191.887 100.993 190.8 98.3519 195.616C95.7106 200.433 94.3122 201.831 96.0213 202.608C99.2842 204.317 102.081 196.704 103.945 197.325C105.965 197.947 106.121 189.091 106.121 189.091Z" fill="#F4AC8D"/>
<path d="M119.638 118.24C112.802 116.997 109.228 123.212 109.073 133.311C109.073 143.41 107.364 152.111 107.364 152.111C107.364 152.111 116.531 159.569 126.941 156.617C126.941 156.617 129.272 119.949 119.638 118.24Z" fill="#D33C3C"/>
<path d="M98.9736 96.643C96.1769 95.4 91.5157 86.3883 94.4678 85.7668C97.4199 85.1453 98.5076 90.2727 105.81 91.671C110.471 92.4479 98.9736 96.643 98.9736 96.643Z" fill="#F4AC8D"/>
<path d="M109.694 85.9221C109.694 85.9221 109.228 81.2609 106.276 80.6394C103.168 80.0179 102.081 80.9502 102.081 80.9502C102.081 80.9502 100.682 80.0179 98.6626 79.7072C96.6428 79.3964 91.8262 81.7271 91.8262 82.97C91.8262 84.213 94.9336 84.8345 96.6427 84.6792C97.2642 84.6792 97.4196 86.8544 99.4395 86.3883C101.615 85.9222 104.256 85.1453 106.587 85.1453C106.587 85.3007 108.917 85.6114 109.694 85.9221Z" fill="#F4AC8D"/>
<path d="M34.4933 75.6672C34.4933 75.8226 34.4933 75.8226 34.4933 75.6672C34.1826 76.4441 33.8718 77.0656 33.8718 77.6871C33.7164 78.3086 33.7164 78.9301 33.7164 79.5516C33.7164 79.8623 33.7164 80.0177 33.7164 80.3284C33.7164 80.6392 33.7164 80.7945 33.8718 80.9499C33.8718 81.2607 34.0272 81.5714 34.1826 81.7268C34.3379 81.8822 34.4933 82.1929 34.6487 82.3483C34.6487 82.3483 34.6487 82.3483 34.6487 82.5037V82.659C34.6487 82.659 34.6487 82.8144 34.4933 82.8144C34.4933 82.8144 34.4933 82.9698 34.3379 82.9698L34.1826 83.1251H34.0272C33.8718 83.1251 33.7164 82.9698 33.7164 82.9698C33.5611 82.8144 33.4057 82.659 33.2503 82.5037C33.0949 82.3483 32.9396 82.0375 32.9396 81.5714C32.9396 81.416 32.7842 81.1053 32.7842 80.9499C32.7842 80.6392 32.7842 80.4838 32.7842 80.1731C32.7842 79.3962 32.9396 78.7747 32.9396 78.3086C33.0949 77.6871 33.2503 77.2209 33.4057 76.7548C33.5611 76.2887 33.7164 75.9779 33.8718 75.8226C34.0272 75.5118 34.1826 75.5118 34.1826 75.3564H34.3379H34.4933C34.4933 75.3564 34.4933 75.3565 34.6487 75.5118C34.6487 75.5118 34.6487 75.5118 34.6487 75.6672C34.4933 75.5118 34.4933 75.6672 34.4933 75.6672Z" fill="black"/>
<path d="M39.465 78.1535C39.465 78.3088 39.465 78.3088 39.465 78.1535H39.6204L39.7758 77.9981C39.9311 77.8427 39.9312 77.8427 39.9312 77.6873C39.9312 77.532 40.0865 77.532 40.0865 77.532L40.2419 77.3766H40.3973H40.5526C40.5526 77.3766 40.708 77.3766 40.708 77.532V77.6873C40.708 77.8427 40.5526 77.8427 40.5526 77.9981C40.3973 78.1535 40.2419 78.3088 40.0865 78.4642C39.9311 78.6196 39.7758 78.775 39.465 78.9303C39.3097 78.9303 39.3097 79.0857 39.1543 79.0857C38.8435 79.2411 38.6881 79.2411 38.5328 79.2411C38.3774 79.2411 38.3774 79.0857 38.3774 78.775V78.6196C38.222 78.9303 37.9113 79.3965 37.6005 79.7072C37.2898 80.018 37.1344 80.1733 36.8237 80.3287C36.3576 80.4841 36.0468 80.6395 35.8914 80.6395C35.736 80.6395 35.5807 80.4841 35.4253 80.1733V80.018C35.4253 79.8626 35.4253 79.8626 35.4253 79.7072C35.4253 79.3965 35.5807 78.9303 35.5807 78.6196C35.7361 78.1535 35.8914 77.8427 36.2022 77.3766C36.5129 76.9105 36.6683 76.5997 36.979 76.289C37.2898 75.9782 37.6005 75.6675 37.9113 75.5121L38.0667 75.3567H38.222C38.222 75.2014 38.3774 75.2014 38.5328 75.046C38.5328 75.046 38.6882 75.046 38.6882 74.8906H38.8435H38.9989C38.9989 74.8906 38.9989 74.8906 38.9989 75.046V78.1535H39.465ZM36.8237 79.8626C36.979 79.7072 37.1344 79.7072 37.2898 79.3965C37.4452 79.2411 37.6005 79.0857 37.7559 78.775C37.9113 78.6196 37.9113 78.3088 38.0667 78.1535C38.222 77.9981 38.222 77.8427 38.222 77.6873C38.222 77.3766 38.3774 77.2212 38.3774 76.9105C38.3774 76.7551 38.3774 76.5997 38.3774 76.4444C38.3774 76.289 38.3774 76.289 38.222 76.289C38.222 76.289 38.0667 76.289 37.9113 76.4444C37.7559 76.5997 37.4452 76.7551 37.2898 76.9105C37.1344 77.2212 36.979 77.3766 36.8237 77.6873C36.6683 77.9981 36.5129 78.3088 36.5129 78.4642C36.3576 78.775 36.3575 79.0857 36.3575 79.2411V79.3965V79.5518C36.5129 79.8626 36.6683 79.8626 36.8237 79.8626Z" fill="black"/>
<path d="M50.1858 70.3845C50.1858 70.5398 50.1858 70.5398 50.0305 70.6952C50.0305 70.6952 49.8751 70.8506 49.7197 70.8506L48.166 71.7828V73.1812V73.3366L48.0106 73.4919L47.8552 73.6473L47.6999 73.8027C47.5445 73.8027 47.5445 73.9581 47.3891 73.8027C47.3891 73.8027 47.2337 73.8027 47.2337 73.6473V72.2489L45.68 73.1812H45.5246H45.3693C45.3693 73.1812 45.3692 73.1812 45.2139 73.0258V72.8704C45.2139 72.7151 45.2139 72.7151 45.3693 72.5597C45.3693 72.4043 45.5246 72.4043 45.68 72.4043L47.2337 71.4721V70.0737V69.9183L47.3891 69.763L47.5445 69.6076L47.6999 69.4522C47.8552 69.2968 47.8552 69.2968 48.0106 69.4522V69.6076V71.006L49.5643 70.0737H49.7197H49.8751C49.8751 70.0737 49.8751 70.0737 50.0305 70.2291C50.1858 70.2291 50.1858 70.3845 50.1858 70.3845Z" fill="black"/>
<path d="M58.887 64.7913C58.887 65.2574 58.887 65.7235 58.7317 66.0343C58.5763 66.5004 58.4209 66.8112 58.1102 67.2773C57.7994 67.7434 57.644 68.0541 57.3333 68.3649C57.0225 68.6756 56.7118 68.9864 56.401 69.1418C56.2457 69.2971 56.0903 69.2971 55.9349 69.2971C55.7796 69.2971 55.6242 69.2971 55.4688 69.2971C55.3134 69.2971 55.3134 69.2971 55.1581 69.1418L55.0027 68.9864V63.2376C55.0027 63.0822 55.0027 63.0822 55.0027 62.9268C55.0027 62.7714 55.1581 62.7714 55.3134 62.6161C55.3134 62.6161 55.4688 62.6161 55.4688 62.4607H55.6242H55.7796C55.7796 62.4607 55.7796 62.4607 55.7796 62.6161V65.5682C55.9349 65.1021 56.2457 64.7913 56.5564 64.4805C56.8672 64.1698 57.0225 64.0144 57.3333 63.8591C57.644 63.7037 57.9548 63.5483 58.2656 63.5483C58.4209 63.5483 58.5763 63.7037 58.7317 64.0144C58.887 64.6359 58.887 64.6359 58.887 64.7913ZM57.9548 65.2574C57.9548 65.102 57.7994 64.9467 57.644 65.102C57.4887 65.2574 57.3333 65.2574 57.1779 65.5682C57.0225 65.7235 56.8672 65.8789 56.7118 66.1897C56.5564 66.345 56.401 66.6558 56.401 66.8111C56.2457 67.1219 56.2457 67.2773 56.2457 67.4327V68.6757C56.2457 68.6757 56.2457 68.6757 56.401 68.6757C56.401 68.6757 56.5564 68.6756 56.7118 68.5203C56.8672 68.3649 57.1779 68.2095 57.3333 68.0541C57.4887 67.7434 57.644 67.588 57.7994 67.2773C57.9548 66.9665 58.1102 66.6558 58.1102 66.345C58.2655 66.0343 58.2656 65.7235 58.2656 65.5682V65.4128C57.9548 65.4128 57.9548 65.2574 57.9548 65.2574Z" fill="black"/>
<path d="M61.6837 62.6158C61.6837 62.9265 61.6837 63.0819 61.6837 63.3926C61.6837 64.1695 61.5283 64.791 61.5283 65.2571C61.3729 65.8786 61.2175 66.3447 61.0622 66.8109C60.9068 67.277 60.7514 67.5877 60.5961 67.7431C60.4407 68.0539 60.2853 68.0539 60.2853 68.2092H60.1299H59.9746C59.9746 68.2092 59.9746 68.2092 59.8192 68.0539C59.8192 68.0539 59.8192 68.0539 59.8192 67.8985V67.7431V67.5877C60.13 66.9662 60.2853 66.3447 60.4407 65.7232C60.5961 65.1018 60.5961 64.4803 60.5961 63.8588C60.5961 63.548 60.5961 63.3926 60.5961 63.0819C60.5961 62.7711 60.5961 62.6158 60.4407 62.4604C60.4407 62.1497 60.2853 61.8389 60.1299 61.6835C59.9746 61.5282 59.8192 61.2174 59.6638 61.062C59.6638 61.062 59.6638 61.062 59.6638 60.9067V60.7513C59.6638 60.7513 59.6638 60.5959 59.8192 60.5959C59.8192 60.5959 59.8192 60.4405 59.9746 60.4405L60.1299 60.2852H60.2853C60.4407 60.2852 60.5961 60.4405 60.5961 60.4405C60.7514 60.5959 60.9068 60.7513 61.0622 60.9067C61.2175 61.062 61.3729 61.3728 61.3729 61.8389C61.5283 62.1496 61.6837 62.305 61.6837 62.6158Z" fill="black"/>
<path d="M63.859 59.6637C63.7036 59.8191 63.5482 59.9744 63.5482 60.1298V60.4406L62.9268 60.7513V60.4406C62.9268 59.9744 63.2375 59.5083 63.859 59.1976C64.4805 58.8868 64.7912 59.0422 64.7912 59.5083C64.7912 60.5959 63.5483 61.6835 63.7036 62.1497L64.7912 61.5282V61.9943L63.0821 62.9265V62.6158C63.0821 61.6835 64.1697 60.9067 64.1697 59.9744C64.1697 59.5083 64.0144 59.5083 63.859 59.6637Z" fill="black"/>
<path d="M73.9581 56.4008C73.9581 56.5562 73.9581 56.5562 73.8027 56.7115C73.8027 56.7115 73.6473 56.8669 73.492 56.8669L69.763 59.0421H69.6076H69.4523C69.4523 59.0421 69.4522 59.0422 69.2969 58.8868V58.7314C69.2969 58.576 69.2969 58.576 69.4523 58.4207C69.4523 58.4207 69.6076 58.2653 69.763 58.2653L73.492 56.0901C73.6473 56.0901 73.6474 55.9347 73.8027 56.0901C73.8027 56.0901 73.9581 56.2454 73.9581 56.4008ZM73.9581 57.4884C73.9581 57.6438 73.9581 57.6438 73.8027 57.7992C73.8027 57.7992 73.6473 57.9545 73.492 57.9545L69.763 60.1298C69.6076 60.1298 69.6076 60.2852 69.4523 60.1298L69.2969 59.9744C69.2969 59.819 69.2969 59.819 69.4523 59.6637C69.4523 59.6637 69.6076 59.5083 69.763 59.5083L73.492 57.333C73.6473 57.333 73.6474 57.1777 73.8027 57.333C73.9581 57.333 73.9581 57.4884 73.9581 57.4884Z" fill="black"/>
<path d="M36.5131 96.1764C36.6685 96.1764 36.6685 96.1764 36.6685 96.1764L36.8239 96.0211C36.9792 95.8657 36.9792 95.8657 36.9792 95.7103C36.9792 95.5549 37.1346 95.5549 37.1346 95.5549L37.29 95.3996H37.4454H37.6007C37.6007 95.3996 37.7561 95.3996 37.7561 95.5549V95.7103C37.7561 95.8657 37.6007 95.8657 37.6007 96.0211C37.4454 96.1764 37.29 96.3318 37.1346 96.4872C36.9792 96.6426 36.8239 96.7979 36.5131 96.9533C36.3577 96.9533 36.3577 97.1087 36.2024 97.1087C35.8916 97.264 35.7362 97.2641 35.5809 97.2641C35.4255 97.2641 35.4255 97.1087 35.4255 96.7979V96.6426C35.2701 96.9533 34.9594 97.4194 34.6486 97.7302C34.3379 98.0409 34.1825 98.1963 33.8717 98.3517C33.4056 98.507 33.0949 98.6624 32.9395 98.6624C32.7841 98.6624 32.6288 98.5071 32.4734 98.1963V98.0409C32.4734 97.8855 32.4734 97.8856 32.4734 97.7302C32.4734 97.4194 32.6288 96.9533 32.6288 96.6426C32.7841 96.1764 32.9395 95.8657 33.2503 95.3996C33.561 94.9334 33.7164 94.6227 34.0271 94.312C34.3379 94.0012 34.6486 93.6905 34.9594 93.5351L35.1147 93.3797H35.2701C35.2701 93.2243 35.4255 93.2243 35.5809 93.069C35.5809 93.069 35.7363 93.0689 35.7363 92.9136H35.8916H36.047C36.047 92.9136 36.047 92.9136 36.047 93.069V96.1764H36.5131ZM33.8717 97.7302C34.0271 97.5748 34.1825 97.5748 34.3379 97.2641C34.4932 97.1087 34.6486 96.9533 34.804 96.6426C34.9594 96.4872 34.9594 96.1764 35.1147 96.0211C35.2701 95.8657 35.2701 95.7103 35.2701 95.5549C35.2701 95.2442 35.4255 95.0888 35.4255 94.7781C35.4255 94.6227 35.4255 94.4673 35.4255 94.312C35.4255 94.1566 35.4255 94.1566 35.2701 94.1566C35.2701 94.1566 35.1148 94.1566 34.9594 94.312C34.804 94.4673 34.4932 94.6227 34.3379 94.7781C34.1825 95.0888 34.0271 95.2442 33.8717 95.5549C33.7164 95.8657 33.561 96.1764 33.561 96.3318C33.4056 96.6425 33.4056 96.9533 33.4056 97.1087V97.2641V97.4194C33.561 97.7302 33.7164 97.8856 33.8717 97.7302Z" fill="black"/>
<path d="M39.6207 89.8063C39.4654 89.9616 39.31 90.117 39.31 90.2724V90.5831L38.6885 90.8939V90.5831C38.6885 90.117 38.9992 89.6509 39.6207 89.3401C40.2422 89.0294 40.553 89.1848 40.553 89.6509C40.553 90.7385 39.31 91.8261 39.4653 92.2923L40.553 91.6707V92.1369L38.8439 93.0691V92.7584C38.8439 91.8261 39.9315 91.0492 39.9315 90.117C39.9315 89.6509 39.7761 89.6509 39.6207 89.8063Z" fill="black"/>
<path d="M49.8753 86.6988C49.8753 86.8542 49.8753 86.8542 49.7199 87.0096C49.7199 87.0096 49.5645 87.1649 49.4092 87.1649L47.8554 88.0972V89.4956V89.6509L47.7001 89.8063L47.5447 89.9617L47.3893 90.117C47.2339 90.117 47.2339 90.2724 47.0785 90.117C47.0785 90.117 46.9232 90.1171 46.9232 89.9617V88.7187L45.3694 89.6509H45.2141H45.0587C45.0587 89.6509 45.0587 89.6509 44.9033 89.4956V89.3402C44.9033 89.1848 44.9033 89.1848 45.0587 89.0294C45.0587 89.0294 45.2141 88.8741 45.3694 88.8741L46.9232 87.9418V86.5435V86.3881L47.0785 86.2327L47.2339 86.0773L47.3893 85.922C47.5447 85.7666 47.5447 85.7666 47.7001 85.922V86.0773V87.4757L49.2538 86.5435H49.4092H49.5645C49.5645 86.5435 49.5646 86.5434 49.7199 86.6988C49.8753 86.6988 49.8753 86.6988 49.8753 86.6988Z" fill="black"/>
<path d="M58.5764 79.3964C58.5764 79.5518 58.5764 79.5518 58.5764 79.7071V79.8625C58.5764 80.3286 58.4211 80.7948 58.2657 81.2609C58.1103 81.727 57.7996 82.1931 57.6442 82.6593C57.3334 83.1254 57.1781 83.5915 56.8673 83.9022C56.5566 84.3684 56.4012 84.6791 56.0904 84.9899L58.4211 83.7469H58.5764H58.7318C58.7318 83.7469 58.7318 83.7469 58.8872 83.9022C58.8872 83.9022 58.8872 83.9022 58.8872 84.0576C58.8872 84.213 58.8872 84.213 58.7318 84.3684C58.5764 84.5237 58.5764 84.5237 58.4211 84.5237L54.6921 86.699H54.5367H54.3813C54.3813 86.699 54.3813 86.699 54.3813 86.5436C54.3813 86.5436 54.3813 86.5436 54.3813 86.3882V86.2329C54.3813 86.2329 54.3813 86.0775 54.5367 86.0775C54.5367 86.0775 54.5367 85.9221 54.6921 85.9221L54.8475 85.7667C55.0028 85.6114 55.1582 85.456 55.3136 85.1452C55.469 84.8345 55.6243 84.6791 55.9351 84.3684C56.0905 84.0576 56.4012 83.7469 56.5566 83.4361C56.7119 83.1254 57.0227 82.8146 57.1781 82.3485C57.3334 82.0378 57.4888 81.727 57.6442 81.4163C57.7996 81.1055 57.7996 80.7948 57.7996 80.6394V80.484V80.3287C57.7996 80.1733 57.6442 80.0179 57.4888 80.0179C57.3335 80.0179 57.0227 80.0179 56.712 80.3287C56.4012 80.484 56.2458 80.6394 56.0904 80.7948C55.9351 80.9501 55.7797 81.1055 55.6243 81.1055L55.469 81.2609C55.469 81.2609 55.469 81.2609 55.3136 81.2609C55.3136 81.2609 55.3136 81.2609 55.1582 81.2609H55.0028C55.0028 81.2609 54.8475 81.2609 54.8475 81.1055C54.8475 80.9502 54.8475 80.9501 54.8475 80.9501C54.8475 80.7948 54.8475 80.7948 54.8475 80.7948C54.8475 80.7948 55.0028 80.6394 55.1582 80.484C55.3136 80.3286 55.4689 80.1733 55.6243 80.0179C55.9351 79.8625 56.0905 79.5518 56.5566 79.3964C56.8673 79.241 57.0227 79.0857 57.3334 79.0857C57.6442 79.0857 57.7996 78.9303 57.9549 79.0857C58.1103 79.0857 58.2657 79.241 58.4211 79.241C58.5764 79.3964 58.5764 79.5518 58.7318 79.7071C58.5764 79.241 58.5764 79.241 58.5764 79.3964Z" fill="black"/>
<path d="M63.859 80.3286H64.0144L64.1698 80.1733C64.3252 80.0179 64.3252 80.0179 64.3252 79.8625C64.3252 79.7071 64.4806 79.7071 64.4806 79.7071L64.6359 79.5518H64.7913H64.9467C64.9467 79.5518 65.102 79.5518 65.102 79.7071V79.8625C65.102 80.0179 64.9467 80.0179 64.9467 80.1733C64.7913 80.3286 64.6359 80.484 64.4806 80.6394C64.3252 80.7948 64.1698 80.9501 63.859 81.1055C63.7037 81.1055 63.7037 81.2609 63.5483 81.2609C63.2376 81.4162 63.0822 81.4163 62.9268 81.4163C62.7714 81.4163 62.7714 81.2609 62.7714 80.9501C62.6161 81.2609 62.3053 81.727 61.9946 82.0377C61.6838 82.3485 61.5284 82.5039 61.2177 82.6592C60.7516 82.8146 60.4408 82.97 60.2854 82.97C60.1301 82.97 59.9747 82.8146 59.8193 82.5039V82.3485C59.8193 82.1931 59.8193 82.1931 59.8193 82.0377C59.8193 81.727 59.9747 81.2609 59.9747 80.9501C60.1301 80.484 60.2855 80.1732 60.5962 79.7071C60.907 79.241 61.0623 78.9303 61.3731 78.6195C61.6838 78.3088 61.9946 77.998 62.3053 77.8426L62.4607 77.6873H62.6161C62.6161 77.5319 62.7714 77.5319 62.9268 77.3765C62.9268 77.3765 63.0822 77.3765 63.0822 77.2212C63.0822 77.0658 63.2376 77.2212 63.2376 77.2212H63.3929C63.3929 77.2212 63.3929 77.2211 63.3929 77.3765V80.3286H63.859ZM61.2177 81.8824C61.3731 81.727 61.5284 81.727 61.6838 81.4163C61.8392 81.2609 61.9946 81.1055 62.1499 80.7947C62.3053 80.6394 62.4607 80.3286 62.4607 80.1733C62.6161 80.0179 62.6161 79.8625 62.6161 79.7071C62.6161 79.3964 62.7714 79.241 62.7714 78.9303C62.7714 78.7749 62.7714 78.6195 62.7714 78.4641C62.7714 78.3088 62.7714 78.3088 62.6161 78.3088C62.6161 78.3088 62.4607 78.3088 62.3053 78.4641C62.1499 78.6195 61.8392 78.7749 61.6838 78.9303C61.5284 79.241 61.3731 79.3964 61.2177 79.7071C61.0623 80.0179 60.9069 80.3286 60.9069 80.484C60.7516 80.7947 60.7516 81.1055 60.7516 81.2609V81.4163V81.5716C60.9069 82.0377 61.0623 82.0378 61.2177 81.8824Z" fill="black"/>
<path d="M70.0738 74.5794C70.0738 75.0455 70.0738 75.5116 69.9184 75.8224C69.7631 76.2885 69.6077 76.5993 69.2969 77.0654C68.9862 77.5315 68.8308 77.8423 68.5201 78.153C68.2093 78.4637 67.8986 78.7745 67.5878 78.9299C67.4325 79.0852 67.2771 79.0853 67.1217 79.0853C66.9663 79.0853 66.811 79.0853 66.6556 79.0853C66.5002 79.0853 66.5002 79.0852 66.3448 78.9299L66.1895 78.7745V73.0256C66.1895 72.8703 66.1895 72.8703 66.1895 72.7149C66.1895 72.5595 66.3448 72.5595 66.5002 72.4042C66.5002 72.4042 66.6556 72.4042 66.6556 72.2488H66.811H66.9663C66.9663 72.2488 66.9663 72.2488 66.9663 72.4042V75.3563C67.1217 74.8901 67.4324 74.5794 67.7432 74.2686C68.0539 73.9579 68.2093 73.8025 68.5201 73.6472C68.8308 73.4918 69.1416 73.3364 69.4523 73.3364C69.6077 73.3364 69.7631 73.4918 69.9184 73.8025C70.0738 74.2686 70.0738 74.424 70.0738 74.5794ZM69.1416 75.0455C69.1416 74.8901 68.9862 74.7348 68.8308 74.8902C68.6754 75.0455 68.5201 75.0455 68.3647 75.3563C68.2093 75.5116 68.054 75.667 67.8986 75.9778C67.7432 76.1331 67.5878 76.4439 67.5878 76.5993C67.4325 76.91 67.4325 77.0654 67.4325 77.2208V78.4637C67.4325 78.4637 67.4325 78.4637 67.5878 78.4637C67.5878 78.4637 67.7432 78.4638 67.8986 78.3084C68.054 78.153 68.3647 77.9976 68.5201 77.8423C68.6754 77.5315 68.8308 77.3761 68.9862 77.0654C69.1416 76.7546 69.2969 76.4439 69.2969 76.1331C69.4523 75.8224 69.4523 75.5116 69.4523 75.3563V75.2009C69.1416 75.0455 69.1416 75.0455 69.1416 75.0455Z" fill="black"/>
<path d="M79.7071 69.6078C79.7071 69.7631 79.7071 69.7631 79.5517 69.9185C79.5517 69.9185 79.3963 70.0739 79.241 70.0739L77.6872 71.0061V72.4045V72.5599L77.5318 72.7152L77.3765 72.8706L77.2211 73.026C77.0657 73.026 77.0657 73.1814 76.9104 73.026C76.9104 73.026 76.755 73.026 76.755 72.8706V71.6276L75.2012 72.5599H75.0459H74.8905C74.8905 72.5599 74.8905 72.5599 74.7351 72.4045V72.2491C74.7351 72.0937 74.7351 72.0937 74.8905 71.9384C74.8905 71.9384 75.0459 71.783 75.2012 71.783L76.755 70.8508V69.4524V69.297L76.9104 69.1416L77.0657 68.9863L77.2211 68.8309C77.3765 68.6755 77.3765 68.6755 77.5318 68.8309V68.9863V70.3846L79.0856 69.4524H79.241H79.3963C79.3963 69.4524 79.3963 69.4524 79.5517 69.6078C79.7071 69.4524 79.7071 69.4524 79.7071 69.6078Z" fill="black"/>
<path d="M88.5636 64.0144C88.5636 64.4806 88.5635 64.9467 88.4082 65.2574C88.2528 65.7235 88.0974 66.0343 87.7867 66.5004C87.4759 66.9665 87.3206 67.2773 87.0098 67.588C86.6991 67.8988 86.3883 68.2095 86.0776 68.3649C85.9222 68.5203 85.7668 68.5203 85.6114 68.5203C85.4561 68.5203 85.3007 68.5203 85.1453 68.5203C84.9899 68.5203 84.9899 68.5203 84.8346 68.3649L84.6792 68.2095V62.4607C84.6792 62.3053 84.6792 62.3053 84.6792 62.1499C84.6792 61.9946 84.8346 61.9946 84.9899 61.8392C84.9899 61.8392 85.1453 61.8392 85.1453 61.6838H85.3007H85.4561C85.4561 61.6838 85.4561 61.6838 85.4561 61.8392V64.7913C85.6114 64.3252 85.9222 64.0144 86.2329 63.7037C86.5437 63.3929 86.6991 63.2376 87.0098 63.0822C87.3206 62.9268 87.6313 62.7715 87.942 62.7715C88.0974 62.7715 88.2528 62.9268 88.4082 63.2376C88.4082 63.7037 88.5636 63.8591 88.5636 64.0144ZM87.4759 64.3252C87.4759 64.1698 87.3205 64.0144 87.1652 64.1698C87.0098 64.3252 86.8544 64.3252 86.699 64.6359C86.5437 64.7913 86.3883 64.9467 86.2329 65.2574C86.0776 65.4128 85.9222 65.7236 85.9222 65.8789C85.7668 66.1897 85.7668 66.345 85.7668 66.5004V67.7434C85.7668 67.7434 85.7668 67.7434 85.9222 67.7434C85.9222 67.7434 86.0776 67.7434 86.2329 67.588C86.3883 67.4327 86.6991 67.2773 86.8544 67.1219C87.0098 66.8112 87.1652 66.6558 87.3206 66.3451C87.4759 66.0343 87.6313 65.7236 87.6313 65.4128C87.7867 65.1021 87.7867 64.7913 87.7867 64.6359V64.4806C87.4759 64.4806 87.4759 64.4806 87.4759 64.3252Z" fill="black"/>
<path d="M90.5834 60.4408C90.428 60.5962 90.2726 60.7515 90.2726 60.9069V61.2177L89.6511 61.5284V61.2177C89.6511 60.7515 89.9619 60.2854 90.5834 59.9747C91.2048 59.6639 91.5156 59.8193 91.5156 60.2854C91.5156 61.373 90.2726 62.4606 90.428 62.9268L91.5156 62.3053V62.7714L89.8065 63.7036V63.3929C89.8065 62.4606 90.8941 61.6838 90.8941 60.7515C90.8941 60.2854 90.7387 60.2854 90.5834 60.4408Z" fill="black"/>
</svg>
