<svg width="250" height="228" viewBox="0 0 250 228" fill="none" xmlns="http://www.w3.org/2000/svg">
<path d="M1.8728 105.589L46.6725 79.7314L69.1444 95.649L24.2727 121.434L1.8728 105.589Z" fill="#B9DB8D"/>
<path d="M46.6724 80.8121L67.4156 95.5053L24.3445 120.354L3.60125 105.661L46.6724 80.8121ZM46.7444 78.6514L0.216064 105.517L24.2725 122.587L70.8008 95.7214L46.7444 78.6514Z" fill="#84A875"/>
<path d="M24.2007 120.642C21.8239 119.201 19.5191 117.617 18.5828 116.68C20.0953 116.032 21.968 115.6 23.9126 115.6C26.3615 115.6 28.7383 116.176 30.539 117.185C29.4586 118.049 26.9377 119.417 24.2007 120.642Z" fill="#84A875"/>
<path d="M9.3632 109.838C7.99472 109.838 4.46548 107.749 1.58447 105.805C4.53751 104.076 8.35485 102.131 10.0114 102.131C10.0835 102.131 10.0835 102.131 10.0835 102.131C11.4519 103.14 12.1722 104.436 12.1002 105.877C12.0281 107.389 11.0198 108.83 9.3632 109.838Z" fill="#84A875"/>
<path d="M61.5098 98.8905C61.4377 98.8905 61.3657 98.8905 61.3657 98.8905C59.8532 97.8101 59.0609 96.5137 59.1329 95.2172C59.205 93.9208 60.1413 92.6963 61.7258 91.688C62.9503 91.76 66.1194 93.6327 69.0004 95.7214C66.3355 97.306 63.0223 98.8905 61.5098 98.8905Z" fill="#84A875"/>
<path d="M47.3207 86.1419C44.7998 86.1419 42.423 85.5657 40.5503 84.4853C41.4866 83.549 44.0075 81.8204 46.6724 80.3799C49.3374 82.1085 51.7862 83.9811 52.7226 85.0615C51.21 85.7098 49.3374 86.1419 47.3207 86.1419Z" fill="#84A875"/>
<path d="M39.7582 106.309C36.517 106.309 33.0598 105.229 30.4669 103.356C28.1621 101.772 26.8656 99.7549 26.9377 98.0263C27.0097 96.9459 27.5139 96.1537 28.6663 95.5054C29.8187 94.8572 31.3312 94.4971 33.1318 94.4971C36.373 94.4971 39.8302 95.5775 42.4231 97.4501C44.7279 99.0347 46.0244 101.051 45.9523 102.78C45.8803 103.86 45.3761 104.653 44.2237 105.301C43.1434 105.949 41.5588 106.309 39.7582 106.309Z" fill="#84A875"/>
<path d="M33.0596 95.7213C35.9406 95.7213 39.2537 96.8017 41.6306 98.4583C43.9354 100.043 44.6556 101.699 44.6556 102.636C44.6556 102.852 44.6556 103.5 43.5752 104.148C42.6389 104.724 41.3425 105.013 39.7579 105.013C36.8769 105.013 33.5637 103.932 31.1869 102.276C28.8821 100.691 28.1618 99.0345 28.1618 98.0982C28.1618 97.8821 28.1618 97.2339 29.2422 96.5856C30.1785 96.0094 31.547 95.7213 33.0596 95.7213ZM33.0596 93.1284C31.1149 93.1284 29.3142 93.4885 27.9458 94.3528C24.2725 96.5856 25.0647 101.051 29.6744 104.364C32.6274 106.453 36.3727 107.605 39.7579 107.605C41.7026 107.605 43.5032 107.245 44.8717 106.381C48.545 104.148 47.7527 99.6827 43.1431 96.3696C40.1901 94.2808 36.4447 93.1284 33.0596 93.1284Z" fill="#B9DB8D"/>
<path d="M33.0596 94.6409C36.2287 94.6409 39.6859 95.7213 42.2788 97.594C44.5116 99.1785 45.808 101.123 45.736 102.78C45.664 103.788 45.1598 104.58 44.1514 105.157C43.0711 105.805 41.5585 106.165 39.7579 106.165C36.5888 106.165 33.1316 105.085 30.5387 103.212C28.3059 101.627 27.0094 99.6827 27.0815 98.0261C27.1535 97.0178 27.6577 96.2255 28.666 95.6493C29.8184 95.0011 31.3309 94.6409 33.0596 94.6409ZM33.0596 93.1284C31.1149 93.1284 29.3142 93.4885 27.9458 94.3528C24.2725 96.5856 25.0647 101.051 29.6744 104.364C32.6274 106.453 36.3727 107.605 39.7579 107.605C41.7026 107.605 43.5032 107.245 44.8717 106.381C48.545 104.148 47.7527 99.6827 43.1431 96.3696C40.1901 94.2808 36.4447 93.1284 33.0596 93.1284Z" fill="#84A875"/>
<path d="M52.5064 91.1118C54.091 92.3363 54.3791 93.9208 53.0826 94.6411C51.7862 95.3613 49.4094 95.0012 47.8248 93.8488C46.2402 92.6244 45.9521 91.0398 47.2486 90.3196C48.473 89.5273 50.8499 89.9594 52.5064 91.1118Z" fill="#84A875"/>
<path d="M48.9057 91.3997C49.842 91.3997 50.8503 91.7599 51.6426 92.3361C52.2909 92.8402 52.4349 93.2724 52.5069 93.3444C52.5069 93.3444 52.5069 93.3444 52.4349 93.4164C52.2188 93.5605 51.9307 93.6325 51.4986 93.6325C50.5622 93.6325 49.5539 93.2724 48.7616 92.6962C48.1134 92.192 47.9693 91.7599 47.8973 91.6878C47.8973 91.6878 47.8973 91.6878 47.9693 91.6158C48.1854 91.4718 48.4735 91.3997 48.9057 91.3997ZM48.9057 89.8872C48.2574 89.8872 47.6812 90.0313 47.2491 90.2473C45.9526 90.9676 46.2407 92.5521 47.8253 93.7766C48.9057 94.5688 50.2741 95.001 51.4266 95.001C52.0748 95.001 52.651 94.8569 53.0831 94.6409C54.3796 93.9206 54.0915 92.3361 52.5069 91.1116C51.4266 90.3194 50.0581 89.8872 48.9057 89.8872Z" fill="#84A875"/>
<path d="M24.7767 107.245C26.3613 108.469 26.6494 110.054 25.3529 110.774C24.0565 111.495 21.6796 111.134 20.0951 109.982C18.5105 108.758 18.2224 107.173 19.5189 106.453C20.7433 105.661 23.1201 106.021 24.7767 107.245Z" fill="#84A875"/>
<path d="M21.1754 107.534C22.1118 107.534 23.1201 107.894 23.9124 108.47C24.5606 108.974 24.7047 109.406 24.7767 109.478C24.7767 109.478 24.7767 109.478 24.7047 109.55C24.4886 109.694 24.2005 109.766 23.7684 109.766C22.832 109.766 21.8237 109.406 21.0314 108.83C20.3832 108.326 20.2391 107.894 20.1671 107.822C20.1671 107.822 20.1671 107.822 20.2391 107.75C20.4552 107.606 20.7433 107.534 21.1754 107.534ZM21.1754 106.021C20.5272 106.021 19.951 106.165 19.5189 106.381C18.2224 107.101 18.5105 108.686 20.0951 109.91C21.1754 110.703 22.5439 111.135 23.6963 111.135C24.3446 111.135 24.9208 110.991 25.3529 110.775C26.6494 110.054 26.3613 108.47 24.7767 107.245C23.6963 106.453 22.3278 106.021 21.1754 106.021Z" fill="#84A875"/>
<path d="M24.3447 122.587L70.729 95.8652L70.657 111.351L24.2727 138.072L24.3447 122.587Z" fill="#778F6B"/>
<path d="M70.657 96.0093L70.585 111.279L24.4168 137.928L24.4888 122.659L70.657 96.0093ZM70.801 95.7212L24.2727 122.587L24.2007 138.288L70.729 111.423L70.801 95.7212Z" fill="#778F6B"/>
<path d="M0.216064 105.517L24.2005 122.587V138.216L0.216064 121.146V105.517Z" fill="#7E9659"/>
<path d="M24.2725 138.36L24.2005 138.288L0.144043 121.218V105.445L0.216068 105.517L24.2725 122.587V138.36ZM0.216068 121.146L24.1285 138.144V122.587L0.216068 105.589V121.146Z" fill="#8BA863"/>
<g opacity="0.5">
<g opacity="0.5">
<path opacity="0.5" d="M24.2005 137.135L23.9844 136.991L0 119.921L0.432152 119.345L24.2725 136.271L70.5848 109.55L70.9449 110.198L24.2005 137.135Z" fill="#B9DB8D"/>
</g>
<g opacity="0.5">
<path opacity="0.5" d="M24.2005 135.119L23.9844 134.975L0 117.905L0.432152 117.329L24.2725 134.255L70.5848 107.461L70.9449 108.11L24.2005 135.119Z" fill="#B9DB8D"/>
</g>
<g opacity="0.5">
<path opacity="0.5" d="M24.2005 133.103L23.9844 132.958L0 115.888L0.432152 115.24L24.2725 132.238L70.5848 105.445L70.9449 106.093L24.2005 133.103Z" fill="#B9DB8D"/>
</g>
<g opacity="0.5">
<path opacity="0.5" d="M24.2005 131.085L23.9844 130.941L0 113.871L0.432152 113.223L24.2725 130.149L70.5848 103.428L70.9449 104.076L24.2005 131.085Z" fill="#B9DB8D"/>
</g>
<g opacity="0.5">
<path opacity="0.5" d="M24.2005 128.997L23.9844 128.853L0 111.783L0.432152 111.207L24.2725 128.133L70.5848 101.411L70.9449 102.059L24.2005 128.997Z" fill="#B9DB8D"/>
</g>
<g opacity="0.5">
<path opacity="0.5" d="M24.2005 126.98L23.9844 126.836L0 109.766L0.432152 109.19L24.2725 126.116L70.5848 99.3945L70.9449 100.043L24.2005 126.98Z" fill="#B9DB8D"/>
</g>
<g opacity="0.5">
<path opacity="0.5" d="M24.2005 124.963L23.9844 124.819L0 107.749L0.432152 107.173L24.2725 124.099L70.5848 97.3057L70.9449 97.9539L24.2005 124.963Z" fill="#B9DB8D"/>
</g>
<g opacity="0.5">
<path opacity="0.5" d="M24.2005 122.947L23.9844 122.803L0 105.733L0.432152 105.084L24.2725 122.082L70.5848 95.2891L70.9449 95.9373L24.2005 122.947Z" fill="#B9DB8D"/>
</g>
</g>
<g opacity="0.5">
<g opacity="0.5">
<g opacity="0.5">
<path opacity="0.5" d="M70.801 96.1533L24.2727 122.947L24.2007 138.216L70.801 111.351V96.1533Z" fill="#737D41"/>
</g>
</g>
</g>
<path d="M52.5784 106.309L44.3675 110.919L20.311 93.7768L28.5219 89.2393L52.5784 106.309Z" fill="#FEFCA7"/>
<path d="M52.6503 105.876L44.3674 110.486V126.62L52.6503 121.866V105.876Z" fill="#BEAE85"/>
<path d="M0.216064 122.299L24.2005 139.369V138.216L0.216064 121.146V122.299Z" fill="#657541"/>
<path d="M70.801 112.503L24.2007 139.369V138.216L70.801 111.351V112.503Z" fill="#5D6D3F"/>
<path d="M1.8728 90.2477L46.6725 64.3906L69.1444 80.3082L24.2727 106.165L1.8728 90.2477Z" fill="#B9DB8D"/>
<path d="M46.6724 65.5428L67.4156 80.236L24.3445 105.085L3.60125 90.3195L46.6724 65.5428ZM46.7444 63.3101L0.216064 90.1755L24.2725 107.245L70.8008 80.38L46.7444 63.3101Z" fill="#84A875"/>
<path d="M24.2007 105.301C21.8239 103.861 19.5191 102.276 18.5828 101.34C20.0953 100.691 21.968 100.259 23.9126 100.259C26.3615 100.259 28.7383 100.835 30.539 101.844C29.4586 102.708 26.9377 104.149 24.2007 105.301Z" fill="#84A875"/>
<path d="M9.3632 94.4967C7.99472 94.4967 4.46548 92.408 1.58447 90.4633C4.53751 88.7347 8.35485 86.79 10.0114 86.79C10.0835 86.79 10.0835 86.79 10.0835 86.79C11.4519 87.7984 12.1722 89.0948 12.1002 90.5354C12.0281 92.0479 11.0198 93.5604 9.3632 94.4967Z" fill="#84A875"/>
<path d="M61.5098 83.6215C61.4377 83.6215 61.3657 83.6215 61.3657 83.6215C59.8532 82.5411 59.0609 81.2446 59.1329 79.9482C59.205 78.6517 60.1413 77.4273 61.7258 76.4189C62.9503 76.4189 66.1194 78.3636 69.0004 80.4524C66.3355 81.9649 63.0223 83.6215 61.5098 83.6215Z" fill="#84A875"/>
<path d="M47.3207 70.8011C44.7998 70.8011 42.423 70.2249 40.5503 69.1445C41.4866 68.2082 44.0075 66.4796 46.6724 65.0391C49.3374 66.7677 51.7862 68.6403 52.7226 69.7207C51.21 70.441 49.3374 70.8011 47.3207 70.8011Z" fill="#84A875"/>
<path d="M39.7582 90.9679C36.517 90.9679 33.0598 89.8875 30.4669 88.0149C28.1621 86.4303 26.8656 84.4136 26.9377 82.685C27.0097 81.6046 27.5139 80.8123 28.6663 80.1641C29.8187 79.5159 31.3312 79.1558 33.1318 79.1558C36.373 79.1558 39.8302 80.2361 42.4231 82.1088C44.7279 83.6934 46.0244 85.7101 45.9523 87.4387C45.8803 88.519 45.3761 89.3113 44.2237 89.9596C43.1434 90.6078 41.5588 90.9679 39.7582 90.9679Z" fill="#84A875"/>
<path d="M33.0596 80.4523C35.9406 80.4523 39.2537 81.5327 41.6306 83.1892C43.9354 84.7738 44.6556 86.4304 44.6556 87.3667C44.6556 87.5828 44.6556 88.231 43.5752 88.8792C42.6389 89.4554 41.3425 89.7435 39.7579 89.7435C36.8769 89.7435 33.5637 88.6632 31.1869 87.0066C28.8821 85.422 28.1618 83.7654 28.1618 82.8291C28.1618 82.613 28.1618 81.9648 29.2422 81.3166C30.1785 80.7404 31.547 80.4523 33.0596 80.4523ZM33.0596 77.8594C31.1149 77.8594 29.3142 78.2195 27.9458 79.0838C24.2725 81.3166 25.0647 85.7822 29.6744 89.0953C32.6274 91.184 36.3727 92.3365 39.7579 92.3365C41.7026 92.3365 43.5032 91.9763 44.8717 91.112C48.545 88.8792 47.7527 84.4137 43.1431 81.1005C40.1901 78.9398 36.4447 77.8594 33.0596 77.8594Z" fill="#B9DB8D"/>
<path d="M33.0596 79.2999C36.2287 79.2999 39.6859 80.3803 42.2788 82.2529C44.5116 83.8375 45.808 85.7822 45.736 87.4387C45.664 88.4471 45.1598 89.2394 44.1514 89.8156C43.0711 90.4638 41.5585 90.8239 39.7579 90.8239C36.5888 90.8239 33.1316 89.7435 30.5387 87.8709C28.3059 86.2863 27.0094 84.3417 27.0815 82.6851C27.1535 81.6767 27.6577 80.8844 28.666 80.3082C29.8184 79.66 31.3309 79.2999 33.0596 79.2999ZM33.0596 77.8594C31.1149 77.8594 29.3142 78.2195 27.9458 79.0838C24.2725 81.3166 25.0647 85.7822 29.6744 89.0953C32.6274 91.184 36.3727 92.3365 39.7579 92.3365C41.7026 92.3365 43.5032 91.9763 44.8717 91.112C48.545 88.8792 47.7527 84.4137 43.1431 81.1005C40.1901 78.9398 36.4447 77.8594 33.0596 77.8594Z" fill="#84A875"/>
<path d="M52.5067 75.8432C54.0912 77.0676 54.3793 78.6522 53.0829 79.3724C51.7864 80.0927 49.4096 79.7326 47.825 78.5802C46.2405 77.3557 45.9524 75.7712 47.2488 75.0509C48.4733 74.2587 50.8501 74.6188 52.5067 75.8432Z" fill="#84A875"/>
<path d="M48.9054 76.0592C49.8418 76.0592 50.8501 76.4193 51.6424 76.9955C52.2906 77.4997 52.4347 77.9318 52.5067 78.0038C52.5067 78.0038 52.5067 78.0038 52.4347 78.0759C52.2186 78.2199 51.9305 78.2919 51.4983 78.2919C50.562 78.2919 49.5536 77.9318 48.7614 77.3556C48.1131 76.8514 47.9691 76.4193 47.8971 76.3473C47.8971 76.3473 47.8971 76.3473 47.9691 76.2752C48.1852 76.1312 48.4733 76.0592 48.9054 76.0592ZM48.9054 74.6187C48.2572 74.6187 47.681 74.7627 47.2488 74.9788C45.9524 75.699 46.2405 77.2836 47.825 78.508C48.9054 79.3003 50.2739 79.7324 51.4263 79.7324C52.0745 79.7324 52.6507 79.5884 53.0829 79.3723C54.3793 78.6521 54.0912 77.0675 52.5067 75.8431C51.4263 75.0508 50.0578 74.6187 48.9054 74.6187Z" fill="#84A875"/>
<path d="M24.7767 91.9765C26.3613 93.2009 26.6494 94.7855 25.3529 95.5058C24.0565 96.226 21.6796 95.8659 20.0951 94.7135C18.5105 93.489 18.2224 91.9045 19.5189 91.1842C20.7433 90.392 23.1201 90.7521 24.7767 91.9765Z" fill="#84A875"/>
<path d="M21.1754 92.192C22.1118 92.192 23.1201 92.5521 23.9124 93.1283C24.5606 93.6325 24.7047 94.0646 24.7767 94.1367C24.7767 94.1367 24.7767 94.1367 24.7047 94.2087C24.4886 94.3527 24.2005 94.4248 23.7684 94.4248C22.832 94.4248 21.8237 94.0646 21.0314 93.4884C20.3832 92.9843 20.2391 92.5521 20.1671 92.4801C20.1671 92.4801 20.1671 92.4801 20.2391 92.408C20.4552 92.264 20.7433 92.192 21.1754 92.192ZM21.1754 90.7515C20.5272 90.7515 19.951 90.8955 19.5189 91.1116C18.2224 91.8318 18.5105 93.4164 20.0951 94.6408C21.1754 95.4331 22.5439 95.8653 23.6963 95.8653C24.3446 95.8653 24.9208 95.7212 25.3529 95.5051C26.6494 94.7849 26.3613 93.2003 24.7767 91.9759C23.6963 91.1836 22.3278 90.7515 21.1754 90.7515Z" fill="#84A875"/>
<path d="M24.3447 107.317L70.729 80.5239L70.657 96.0094L24.2727 122.803L24.3447 107.317Z" fill="#778F6B"/>
<path d="M70.657 80.74L70.585 95.9373L24.4168 122.587L24.4888 107.317L70.657 80.74ZM70.801 80.3799L24.2727 107.245L24.2007 122.947L70.729 96.0814L70.801 80.3799Z" fill="#778F6B"/>
<path d="M0.216064 90.1758L24.2005 107.246V122.947L0.216064 105.877V90.1758Z" fill="#7E9659"/>
<path d="M24.2725 123.019L24.2005 122.947L0.144043 105.877V90.1035L0.216068 90.1755L24.2725 107.246V123.019ZM0.216068 105.877L24.1285 122.875V107.318L0.216068 90.2476V105.877Z" fill="#8BA863"/>
<g opacity="0.5">
<g opacity="0.5">
<path opacity="0.5" d="M24.2005 121.867L23.9844 121.723L0 104.653L0.432152 104.005L24.2725 121.003L70.5848 94.2095L70.9449 94.8577L24.2005 121.867Z" fill="#B9DB8D"/>
</g>
<g opacity="0.5">
<path opacity="0.5" d="M24.2005 119.851L23.9844 119.707L0 102.637L0.432152 101.988L24.2725 118.914L70.5848 92.1929L70.9449 92.8411L24.2005 119.851Z" fill="#B9DB8D"/>
</g>
<g opacity="0.5">
<path opacity="0.5" d="M24.2005 117.762L23.9844 117.618L0 100.548L0.432152 99.9717L24.2725 116.898L70.5848 90.1763L70.9449 90.8245L24.2005 117.762Z" fill="#B9DB8D"/>
</g>
<g opacity="0.5">
<path opacity="0.5" d="M24.2005 115.745L23.9844 115.601L0 98.5308L0.432152 97.9546L24.2725 114.881L70.5848 88.1592L70.9449 88.7354L24.2005 115.745Z" fill="#B9DB8D"/>
</g>
<g opacity="0.5">
<path opacity="0.5" d="M24.2005 113.729L23.9844 113.584L0 96.5145L0.432152 95.9383L24.2725 112.864L70.5848 86.0708L70.9449 86.719L24.2005 113.729Z" fill="#B9DB8D"/>
</g>
<g opacity="0.5">
<path opacity="0.5" d="M24.2005 111.712L23.9844 111.568L0 94.4979L0.432152 93.8496L24.2725 110.776L70.5848 84.0542L70.9449 84.7024L24.2005 111.712Z" fill="#B9DB8D"/>
</g>
<g opacity="0.5">
<path opacity="0.5" d="M24.2005 109.623L23.9844 109.551L0 92.4088L0.432152 91.8325L24.2725 108.758L70.5848 82.0371L70.9449 82.6853L24.2005 109.623Z" fill="#B9DB8D"/>
</g>
<g opacity="0.5">
<path opacity="0.5" d="M24.2005 107.606L23.9844 107.462L0 90.3921L0.432152 89.8159L24.2725 106.742L70.5848 80.0205L70.9449 80.6687L24.2005 107.606Z" fill="#B9DB8D"/>
</g>
</g>
<g opacity="0.5">
<g opacity="0.5">
<g opacity="0.5">
<path opacity="0.5" d="M70.801 80.812L24.2727 107.677L24.2007 122.947L70.801 96.0814V80.812Z" fill="#737D41"/>
</g>
</g>
</g>
<path d="M53.1545 91.5439L44.8716 96.1535L20.5271 78.5073L28.738 73.9697L53.1545 91.5439Z" fill="#EBEDD8"/>
<path d="M52.6503 90.6079L44.3674 95.1455V111.351L52.6503 106.598V90.6079Z" fill="#BEAE85"/>
<path d="M0.216064 106.957L24.2005 124.027V122.947L0.216064 105.877V106.957Z" fill="#657541"/>
<path d="M70.801 97.1619L24.2007 124.027V122.947L70.801 96.0815V97.1619Z" fill="#5D6D3F"/>
<g opacity="0.4">
<g opacity="0.4">
<path opacity="0.4" d="M24.2727 107.678L36.3009 100.763V140.161L24.2007 139.369L24.2727 107.678Z" fill="#494954"/>
</g>
</g>
<path d="M112.216 208.514L173.293 214.996L247.479 174.518L159.248 120.283L112.216 208.514Z" fill="#CF4A11" fill-opacity="0.2"/>
<path d="M49.9854 147.94V47.6089L117.689 93.8491V194.108L49.9854 147.94Z" fill="#23225C"/>
<path d="M54.2348 55.7479L113.368 96.0821V185.97L54.2348 145.635V55.7479ZM45.6638 39.4702V150.173L122.011 202.247V91.5445L45.6638 39.4702Z" fill="#5A588C"/>
<g opacity="0.7">
<g opacity="0.7">
<g opacity="0.7">
<path d="M55.0272 55.82L114.16 96.1541V186.042L55.0272 145.707V55.82ZM46.4562 39.4702L38.7495 43.9358L46.4562 150.173L119.85 203.544L122.011 202.247L122.803 91.5445L46.4562 39.4702Z" fill="#CF4A11" fill-opacity="0.2"/>
</g>
</g>
</g>
<path d="M52.1464 57.476L111.279 97.8101V187.698L52.1464 147.364V57.476ZM43.5033 41.1982L35.7966 45.6638L43.5033 151.901L119.85 203.975V93.2725L43.5033 41.1982Z" fill="#CECEC8"/>
<path d="M191.155 163.209L122.011 202.679V91.5436L191.155 52.0737V163.209Z" fill="#807E8E"/>
<path d="M191.155 52.5785L122.011 92.0483L45.6638 39.4699L114.88 0L191.155 52.5785Z" fill="#CECEC8"/>
<path d="M112.216 97.8108V208.514L119.922 204.048V94.2095V93.7773L112.216 97.8108Z" fill="#807E8E"/>
<path d="M35.8687 45.5913V156.294L112.215 208.368V97.6656L35.8687 45.5913Z" fill="#9D9BAA"/>
<path opacity="0.5" d="M53.1545 80.02V146.787L90.7517 171.78V105.445L53.1545 80.02Z" fill="#1A3D87"/>
<path d="M81.4604 109.19V164.145L90.6797 171.852V105.517L81.4604 109.19Z" fill="#4567BE"/>
<path d="M53.1545 80.02L54.8831 91.1119L81.6765 109.19L90.7517 105.445L53.1545 80.02Z" fill="#5A7BD5"/>
<path d="M56.7556 119.922V111.135L63.454 115.961V124.748L56.7556 119.922Z" fill="#3A7495"/>
<path d="M57.4041 112.432L62.878 116.321V123.523L57.4041 119.634V112.432ZM56.1077 109.911V112.432V119.634V120.282L56.6839 120.642L62.1578 124.532L64.1745 125.972V123.451V116.249V115.601L63.5983 115.241L58.1244 111.351L56.1077 109.911Z" fill="#2E4751"/>
<path d="M56.7556 129.861V121.074L63.454 125.9V134.687L56.7556 129.861Z" fill="#3A7495"/>
<path d="M57.4041 122.37L62.878 126.26V133.462L57.4041 129.573V122.37ZM56.1077 119.85V122.37V129.573V130.221L56.6839 130.581L62.1578 134.471L64.1745 135.911V133.39V126.188V125.54L63.5983 125.179L58.1244 121.29L56.1077 119.85Z" fill="#2E4751"/>
<path d="M56.7556 139.873V131.158L63.454 135.912V144.699L56.7556 139.873Z" fill="#3A7495"/>
<path d="M57.4041 132.382L62.878 136.272V143.474L57.4041 139.585V132.382ZM56.1077 129.861V132.382V139.585V140.233L56.6839 140.593L62.1578 144.482L64.1745 145.923V143.402V136.2V135.551L63.5983 135.191L58.1244 131.302L56.1077 129.861Z" fill="#2E4751"/>
<path d="M64.1023 124.963V116.176L70.8006 121.002V129.717L64.1023 124.963Z" fill="#3A7495"/>
<path d="M64.7506 117.401L70.2245 121.29V128.493L64.7506 124.604V117.401ZM63.4541 114.952V117.473V124.676V125.324L64.0303 125.684L69.5042 129.573L71.5209 131.014V128.493V121.29V120.642L70.9447 120.282L65.4708 116.393L63.4541 114.952Z" fill="#2E4751"/>
<path d="M57.4041 107.173V99.9707L77.9313 113.8V120.93L57.4041 107.173Z" fill="#45444D"/>
<path d="M64.1023 134.903V126.116L70.8006 130.941V139.656L64.1023 134.903Z" fill="#3A7495"/>
<path d="M64.7506 127.34L70.2245 131.23V138.432L64.7506 134.543V127.34ZM63.4541 124.892V127.412V134.615V135.263L64.0303 135.623L69.5042 139.513L71.5209 140.953V138.432V131.23V130.582L70.9447 130.221L65.4708 126.332L63.4541 124.892Z" fill="#2E4751"/>
<path d="M64.1023 144.915V136.127L70.8006 140.953V149.74L64.1023 144.915Z" fill="#3A7495"/>
<path d="M64.7506 137.424L70.2245 141.313V148.516L64.7506 144.626V137.424ZM63.4541 134.903V137.424V144.626V145.274L64.0303 145.635L69.5042 149.524L71.5209 150.964V148.444V141.241V140.593L70.9447 140.233L65.4708 136.343L63.4541 134.903Z" fill="#2E4751"/>
<path d="M71.377 130.366V121.579L78.1473 126.405V135.12L71.377 130.366Z" fill="#3A7495"/>
<path d="M72.0252 122.803L77.4991 126.693V133.895L72.0252 130.006V122.803ZM70.7288 120.354V122.875V130.078V130.726L71.305 131.086L76.7789 134.976L78.7956 136.416V133.895V126.693V126.044L78.2194 125.684L72.7455 121.795L70.7288 120.354Z" fill="#2E4751"/>
<path d="M71.377 140.306V131.519L78.1473 136.345V145.06L71.377 140.306Z" fill="#3A7495"/>
<path d="M72.0252 132.743L77.4991 136.633V143.835L72.0252 139.946V132.743ZM70.7288 130.294V132.815V140.018V140.666L71.305 141.026L76.7789 144.916L78.7956 146.356V143.835V136.633V135.984L78.2194 135.624L72.7455 131.735L70.7288 130.294Z" fill="#2E4751"/>
<path d="M71.377 150.318V141.531L78.1473 146.356V155.144L71.377 150.318Z" fill="#3A7495"/>
<path d="M72.0252 142.827L77.4991 146.716V153.919L72.0252 150.03V142.827ZM70.7288 140.306V142.827V150.03V150.678L71.305 151.038L76.7789 154.927L78.7956 156.368V153.847V146.644V145.996L78.2194 145.636L72.7455 141.747L70.7288 140.306Z" fill="#2E4751"/>
<g opacity="0.3">
<g opacity="0.3">
<path opacity="0.3" d="M163.426 209.594L170.34 209.522L210.962 183.881L187.482 171.42L154.278 191.66L163.426 209.594Z" fill="#0D103E"/>
</g>
</g>
<g opacity="0.3">
<g opacity="0.3">
<path opacity="0.3" d="M197.782 227.96L204.696 227.888L250 201.095L226.88 187.122L188.635 210.026L197.782 227.96Z" fill="#313640"/>
</g>
</g>
<path d="M141.314 175.886L186.114 150.029L208.514 165.947L163.714 191.804L141.314 175.886Z" fill="#B9DB8D"/>
<path d="M186.042 151.109L206.785 165.803L163.714 190.651L142.97 175.958L186.042 151.109ZM186.186 148.949L139.657 175.814L163.714 192.884L210.314 166.019L186.186 148.949Z" fill="#84A875"/>
<path d="M163.642 190.939C161.265 189.499 158.96 187.914 158.024 186.978C159.536 186.33 161.409 185.897 163.354 185.897C165.803 185.897 168.179 186.474 169.98 187.482C168.9 188.346 166.307 189.787 163.642 190.939Z" fill="#84A875"/>
<path d="M148.733 180.135C147.364 180.135 143.835 178.047 140.954 176.102C143.907 174.373 147.724 172.429 149.309 172.429C149.381 172.429 149.381 172.429 149.381 172.429C150.75 173.437 151.47 174.734 151.398 176.174C151.47 177.687 150.461 179.127 148.733 180.135Z" fill="#84A875"/>
<path d="M200.951 169.26C200.879 169.26 200.807 169.26 200.807 169.26C199.294 168.18 198.502 166.883 198.574 165.587C198.646 164.29 199.582 163.066 201.167 162.058C202.391 162.058 205.561 164.002 208.37 166.091C205.777 167.604 202.463 169.26 200.951 169.26Z" fill="#84A875"/>
<path d="M186.69 156.439C184.169 156.439 181.792 155.863 179.919 154.783C180.856 153.846 183.377 152.118 186.042 150.677C188.707 152.406 191.155 154.279 192.092 155.359C190.579 156.079 188.707 156.439 186.69 156.439Z" fill="#84A875"/>
<path d="M179.199 176.607C175.958 176.607 172.501 175.526 169.908 173.654C167.603 172.069 166.307 170.052 166.379 168.324C166.451 167.243 166.955 166.451 168.107 165.803C169.26 165.155 170.772 164.794 172.573 164.794C175.814 164.794 179.271 165.875 181.864 167.747C184.169 169.332 185.466 171.349 185.393 173.077C185.321 174.158 184.817 174.95 183.665 175.598C182.512 176.246 181 176.607 179.199 176.607Z" fill="#84A875"/>
<path d="M172.501 166.019C175.382 166.019 178.695 167.099 181.072 168.756C183.377 170.34 184.097 171.997 184.097 172.933C184.097 173.149 184.097 173.798 183.017 174.446C182.081 175.022 180.784 175.31 179.2 175.31C176.319 175.31 173.005 174.23 170.629 172.573C168.324 170.989 167.603 169.332 167.603 168.396C167.603 168.18 167.603 167.531 168.684 166.883C169.62 166.379 170.989 166.019 172.501 166.019ZM172.501 163.498C170.557 163.498 168.756 163.858 167.387 164.722C163.714 166.955 164.506 171.421 169.116 174.734C172.069 176.823 175.814 177.975 179.2 177.975C181.144 177.975 182.945 177.615 184.313 176.751C187.987 174.518 187.194 170.052 182.585 166.739C179.632 164.578 175.814 163.498 172.501 163.498Z" fill="#B9DB8D"/>
<path d="M172.501 164.939C175.67 164.939 179.128 166.019 181.72 167.892C183.953 169.476 185.25 171.421 185.178 173.077C185.106 174.086 184.601 174.878 183.593 175.454C182.513 176.102 181 176.463 179.2 176.463C176.03 176.463 172.573 175.382 169.98 173.51C167.748 171.925 166.451 169.98 166.523 168.324C166.595 167.315 167.099 166.523 168.108 165.947C169.26 165.299 170.773 164.939 172.501 164.939ZM172.501 163.498C170.557 163.498 168.756 163.858 167.387 164.722C163.714 166.955 164.506 171.421 169.116 174.734C172.069 176.823 175.814 177.975 179.2 177.975C181.144 177.975 182.945 177.615 184.313 176.751C187.987 174.518 187.194 170.052 182.585 166.739C179.632 164.578 175.814 163.498 172.501 163.498Z" fill="#84A875"/>
<path d="M191.876 161.48C193.46 162.705 193.748 164.289 192.452 165.01C191.156 165.73 188.779 165.37 187.194 164.217C185.61 162.993 185.322 161.408 186.618 160.688C187.914 159.896 190.291 160.256 191.876 161.48Z" fill="#84A875"/>
<path d="M188.275 161.697C189.211 161.697 190.219 162.057 191.012 162.634C191.66 163.138 191.804 163.57 191.804 163.642C191.804 163.642 191.804 163.642 191.732 163.714C191.516 163.858 191.228 163.93 190.795 163.93C189.859 163.93 188.851 163.57 188.058 162.994C187.41 162.49 187.266 162.057 187.266 161.985C187.266 161.985 187.266 161.985 187.338 161.913C187.554 161.769 187.914 161.697 188.275 161.697ZM188.275 160.257C187.626 160.257 187.05 160.401 186.618 160.617C185.322 161.337 185.61 162.922 187.194 164.146C188.275 164.938 189.643 165.371 190.795 165.371C191.444 165.371 192.02 165.227 192.452 165.011C193.748 164.29 193.46 162.706 191.876 161.481C190.867 160.689 189.499 160.257 188.275 160.257Z" fill="#84A875"/>
<path d="M164.146 177.542C165.731 178.767 166.019 180.351 164.723 181.072C163.426 181.792 161.049 181.432 159.465 180.279C157.88 179.055 157.592 177.47 158.888 176.75C160.185 176.03 162.562 176.39 164.146 177.542Z" fill="#84A875"/>
<path d="M160.545 177.831C161.481 177.831 162.49 178.191 163.282 178.767C163.93 179.271 164.074 179.703 164.146 179.775C164.146 179.775 164.146 179.775 164.074 179.847C163.858 179.991 163.57 180.063 163.138 180.063C162.202 180.063 161.193 179.703 160.401 179.127C159.753 178.623 159.609 178.191 159.537 178.119C159.537 178.119 159.537 178.119 159.609 178.047C159.825 177.903 160.185 177.831 160.545 177.831ZM160.545 176.39C159.897 176.39 159.321 176.534 158.888 176.75C157.592 177.471 157.88 179.055 159.465 180.28C160.545 181.072 161.914 181.504 163.066 181.504C163.714 181.504 164.29 181.36 164.723 181.144C166.019 180.424 165.731 178.839 164.146 177.615C163.138 176.822 161.769 176.39 160.545 176.39Z" fill="#84A875"/>
<path d="M163.786 192.957L210.17 166.164L210.098 181.649L163.714 208.442L163.786 192.957Z" fill="#778F6B"/>
<path d="M210.026 166.379L209.954 181.648L163.786 208.297L163.858 193.028L210.026 166.379ZM210.242 166.019L163.642 192.884L163.57 208.585L210.098 181.72L210.242 166.019Z" fill="#778F6B"/>
<path d="M139.585 175.814L163.642 192.884V208.586L139.585 191.516V175.814Z" fill="#7E9659"/>
<path d="M163.642 208.658L163.57 208.586L139.513 191.516V175.742L139.585 175.814L163.642 192.884V208.658ZM139.657 191.444L163.57 208.442V192.884L139.657 175.886V191.444Z" fill="#8BA863"/>
<g opacity="0.5">
<g opacity="0.5">
<path opacity="0.5" d="M163.642 207.506L163.426 207.362L139.441 190.292L139.873 189.644L163.642 206.57L210.026 179.849L210.386 180.497L163.642 207.506Z" fill="#B9DB8D"/>
</g>
<g opacity="0.5">
<path opacity="0.5" d="M163.642 205.417L163.426 205.273L139.441 188.203L139.873 187.627L163.642 204.553L210.026 177.832L210.386 178.48L163.642 205.417Z" fill="#B9DB8D"/>
</g>
<g opacity="0.5">
<path opacity="0.5" d="M163.642 203.401L163.426 203.257L139.441 186.187L139.873 185.61L163.642 202.536L210.026 175.815L210.386 176.463L163.642 203.401Z" fill="#B9DB8D"/>
</g>
<g opacity="0.5">
<path opacity="0.5" d="M163.642 201.384L163.426 201.24L139.441 184.17L139.873 183.594L163.642 200.52L210.026 173.727L210.386 174.375L163.642 201.384Z" fill="#B9DB8D"/>
</g>
<g opacity="0.5">
<path opacity="0.5" d="M163.642 199.367L163.426 199.223L139.441 182.153L139.873 181.504L163.642 198.502L210.026 171.709L210.386 172.357L163.642 199.367Z" fill="#B9DB8D"/>
</g>
<g opacity="0.5">
<path opacity="0.5" d="M163.642 197.351L163.426 197.207L139.441 180.137L139.873 179.488L163.642 196.414L210.026 169.693L210.386 170.341L163.642 197.351Z" fill="#B9DB8D"/>
</g>
<g opacity="0.5">
<path opacity="0.5" d="M163.642 195.262L163.426 195.118L139.441 178.048L139.873 177.472L163.642 194.398L210.026 167.676L210.386 168.324L163.642 195.262Z" fill="#B9DB8D"/>
</g>
<g opacity="0.5">
<path opacity="0.5" d="M163.642 193.245L163.426 193.101L139.441 176.031L139.873 175.455L163.642 192.381L210.026 165.659L210.386 166.235L163.642 193.245Z" fill="#B9DB8D"/>
</g>
</g>
<g opacity="0.5">
<g opacity="0.5">
<g opacity="0.5">
<path opacity="0.5" d="M210.242 166.451L163.642 193.316V208.585L210.17 181.72L210.242 166.451Z" fill="#737D41"/>
</g>
</g>
</g>
<path d="M192.02 176.607L183.737 181.217L159.68 164.147L167.963 159.537L192.02 176.607Z" fill="#FEFCA7"/>
<path d="M192.092 176.174L183.737 180.784V196.918L192.092 192.164V176.174Z" fill="#BEAE85"/>
<path d="M139.585 192.596L163.642 209.666V208.586L139.585 191.516V192.596Z" fill="#657541"/>
<path d="M210.17 182.801L163.642 209.666V208.586L210.17 181.72V182.801Z" fill="#5D6D3F"/>
<path d="M141.314 160.689L186.114 134.832L208.514 150.678L163.714 176.535L141.314 160.689Z" fill="#B9DB8D"/>
<path d="M186.042 135.912L206.785 150.605L163.714 175.454L142.97 160.761L186.042 135.912ZM186.186 133.679L139.657 160.545L163.714 177.615L210.314 150.749L186.186 133.679Z" fill="#84A875"/>
<path d="M163.642 175.742C161.265 174.301 158.96 172.717 158.024 171.781C159.536 171.132 161.409 170.7 163.354 170.7C165.803 170.7 168.179 171.276 169.98 172.285C168.9 173.149 166.307 174.518 163.642 175.742Z" fill="#84A875"/>
<path d="M148.733 164.938C147.364 164.938 143.835 162.849 140.954 160.905C143.907 159.176 147.724 157.231 149.309 157.231C149.381 157.231 149.381 157.231 149.381 157.231C150.75 158.24 151.47 159.536 151.398 160.977C151.47 162.489 150.461 163.93 148.733 164.938Z" fill="#84A875"/>
<path d="M200.951 153.991C200.879 153.991 200.807 153.991 200.807 153.991C199.294 152.91 198.502 151.614 198.574 150.317C198.646 149.021 199.582 147.796 201.167 146.788C202.391 146.788 205.561 148.733 208.37 150.821C205.777 152.334 202.463 153.991 200.951 153.991Z" fill="#84A875"/>
<path d="M186.69 141.17C184.169 141.17 181.792 140.594 179.919 139.513C180.856 138.577 183.377 136.848 186.042 135.408C188.707 137.136 191.155 139.009 192.092 140.089C190.579 140.81 188.707 141.17 186.69 141.17Z" fill="#84A875"/>
<path d="M179.199 161.409C175.958 161.409 172.501 160.329 169.908 158.456C167.603 156.872 166.307 154.855 166.379 153.126C166.451 152.046 166.955 151.254 168.107 150.606C169.26 149.957 170.772 149.597 172.573 149.597C175.814 149.597 179.271 150.678 181.864 152.55C184.169 154.135 185.466 156.151 185.393 157.88C185.321 158.96 184.817 159.753 183.665 160.401C182.512 161.049 181 161.409 179.199 161.409Z" fill="#84A875"/>
<path d="M172.501 150.821C175.382 150.821 178.695 151.902 181.072 153.558C183.377 155.143 184.097 156.8 184.097 157.736C184.097 157.952 184.097 158.6 183.017 159.248C182.081 159.825 180.784 160.113 179.2 160.113C176.319 160.113 173.005 159.032 170.629 157.376C168.324 155.791 167.603 154.135 167.603 153.198C167.603 152.982 167.603 152.334 168.684 151.686C169.62 151.11 170.989 150.821 172.501 150.821ZM172.501 148.229C170.557 148.229 168.756 148.589 167.387 149.453C163.714 151.686 164.506 156.151 169.116 159.464C172.069 161.553 175.814 162.706 179.2 162.706C181.144 162.706 182.945 162.345 184.313 161.481C187.987 159.248 187.194 154.783 182.585 151.47C179.632 149.381 175.814 148.229 172.501 148.229Z" fill="#B9DB8D"/>
<path d="M172.501 149.741C175.67 149.741 179.128 150.821 181.72 152.694C183.953 154.279 185.25 156.223 185.178 157.88C185.106 158.888 184.601 159.681 183.593 160.257C182.513 160.905 181 161.265 179.2 161.265C176.03 161.265 172.573 160.185 169.98 158.312C167.748 156.727 166.451 154.783 166.523 153.126C166.595 152.118 167.099 151.326 168.108 150.749C169.26 150.029 170.773 149.741 172.501 149.741ZM172.501 148.229C170.557 148.229 168.756 148.589 167.387 149.453C163.714 151.686 164.506 156.151 169.116 159.464C172.069 161.553 175.814 162.706 179.2 162.706C181.144 162.706 182.945 162.345 184.313 161.481C187.987 159.248 187.194 154.783 182.585 151.47C179.632 149.381 175.814 148.229 172.501 148.229Z" fill="#84A875"/>
<path d="M191.876 146.211C193.46 147.435 193.748 149.02 192.452 149.74C191.156 150.46 188.779 150.1 187.194 148.948C185.61 147.723 185.322 146.139 186.618 145.418C187.914 144.698 190.291 144.986 191.876 146.211Z" fill="#84A875"/>
<path d="M188.275 146.5C189.211 146.5 190.219 146.86 191.012 147.436C191.66 147.94 191.804 148.372 191.804 148.445C191.804 148.445 191.804 148.445 191.732 148.517C191.516 148.661 191.228 148.733 190.795 148.733C189.859 148.733 188.851 148.372 188.058 147.796C187.41 147.292 187.266 146.86 187.266 146.788C187.266 146.788 187.266 146.788 187.338 146.716C187.554 146.572 187.914 146.5 188.275 146.5ZM188.275 144.987C187.626 144.987 187.05 145.131 186.618 145.347C185.322 146.068 185.61 147.652 187.194 148.877C188.275 149.669 189.643 150.101 190.795 150.101C191.444 150.101 192.02 149.957 192.452 149.741C193.748 149.021 193.46 147.436 191.876 146.212C190.867 145.419 189.499 144.987 188.275 144.987Z" fill="#84A875"/>
<path d="M164.146 162.345C165.731 163.57 166.019 165.154 164.722 165.874C163.426 166.595 161.049 166.235 159.464 165.082C157.88 163.858 157.592 162.273 158.888 161.553C160.185 160.761 162.562 161.121 164.146 162.345Z" fill="#84A875"/>
<path d="M160.545 162.634C161.481 162.634 162.49 162.994 163.282 163.57C163.93 164.074 164.074 164.506 164.146 164.578C164.146 164.578 164.146 164.578 164.074 164.65C163.858 164.794 163.57 164.866 163.138 164.866C162.201 164.866 161.193 164.506 160.401 163.93C159.753 163.426 159.608 162.994 159.536 162.922C159.536 162.922 159.536 162.922 159.608 162.85C159.825 162.706 160.185 162.634 160.545 162.634ZM160.545 161.121C159.897 161.121 159.32 161.265 158.888 161.481C157.592 162.201 157.88 163.786 159.464 165.01C160.545 165.803 161.913 166.235 163.066 166.235C163.714 166.235 164.29 166.091 164.722 165.875C166.019 165.155 165.731 163.57 164.146 162.346C163.138 161.553 161.769 161.121 160.545 161.121Z" fill="#84A875"/>
<path d="M163.786 177.687L210.17 150.965L210.098 166.451L163.714 193.172L163.786 177.687Z" fill="#778F6B"/>
<path d="M210.026 151.109L209.954 166.379L163.786 193.028L163.858 177.759L210.026 151.109ZM210.242 150.821L163.642 177.687L163.57 193.388L210.098 166.523L210.242 150.821Z" fill="#778F6B"/>
<path d="M139.585 160.545L163.642 177.687V193.316L139.585 176.246V160.545Z" fill="#7E9659"/>
<path d="M163.642 193.388L163.57 193.316L139.513 176.246V160.473L139.585 160.545L163.642 177.615V193.388ZM139.657 176.246L163.57 193.244V177.687L139.657 160.689V176.246Z" fill="#8BA863"/>
<g opacity="0.5">
<g opacity="0.5">
<path opacity="0.5" d="M163.642 192.236L163.426 192.092L139.441 175.022L139.873 174.446L163.642 191.372L210.026 164.65L210.386 165.227L163.642 192.236Z" fill="#B9DB8D"/>
</g>
<g opacity="0.5">
<path opacity="0.5" d="M163.642 190.22L163.426 190.076L139.441 173.006L139.873 172.357L163.642 189.355L210.026 162.562L210.386 163.21L163.642 190.22Z" fill="#B9DB8D"/>
</g>
<g opacity="0.5">
<path opacity="0.5" d="M163.642 188.203L163.426 188.059L139.441 170.989L139.873 170.341L163.642 187.267L210.026 160.545L210.386 161.194L163.642 188.203Z" fill="#B9DB8D"/>
</g>
<g opacity="0.5">
<path opacity="0.5" d="M163.642 186.114L163.426 185.97L139.441 168.9L139.873 168.324L163.642 185.25L210.026 158.528L210.386 159.177L163.642 186.114Z" fill="#B9DB8D"/>
</g>
<g opacity="0.5">
<path opacity="0.5" d="M163.642 184.097L163.426 183.953L139.441 166.883L139.873 166.307L163.642 183.233L210.026 156.512L210.386 157.16L163.642 184.097Z" fill="#B9DB8D"/>
</g>
<g opacity="0.5">
<path opacity="0.5" d="M163.642 182.081L163.426 181.937L139.441 164.867L139.873 164.291L163.642 181.217L210.026 154.423L210.386 155.072L163.642 182.081Z" fill="#B9DB8D"/>
</g>
<g opacity="0.5">
<path opacity="0.5" d="M163.642 180.064L163.426 179.92L139.441 162.85L139.873 162.202L163.642 179.2L210.026 152.406L210.386 153.054L163.642 180.064Z" fill="#B9DB8D"/>
</g>
<g opacity="0.5">
<path opacity="0.5" d="M163.642 178.047L163.426 177.903L139.441 160.833L139.873 160.185L163.642 177.111L210.026 150.39L210.386 151.038L163.642 178.047Z" fill="#B9DB8D"/>
</g>
</g>
<g opacity="0.5">
<g opacity="0.5">
<g opacity="0.5">
<path opacity="0.5" d="M210.242 151.181L163.642 178.047V193.316L210.17 166.451L210.242 151.181Z" fill="#737D41"/>
</g>
</g>
</g>
<path d="M192.02 161.409L183.737 165.946L159.68 148.876L167.963 144.339L192.02 161.409Z" fill="#FEFCA7"/>
<path d="M192.092 160.977L183.737 165.587V181.72L192.092 176.967V160.977Z" fill="#BEAE85"/>
<path d="M139.585 177.399L163.642 194.468V193.316L139.585 176.246V177.399Z" fill="#657541"/>
<path d="M210.17 167.603L163.642 194.469V193.316L210.17 166.451V167.603Z" fill="#5D6D3F"/>
<path d="M175.67 193.819L220.47 167.962L242.87 183.88L198.07 209.665L175.67 193.819Z" fill="#B9DB8D"/>
<path d="M220.398 169.044L241.141 183.737L198.07 208.585L177.327 193.892L220.398 169.044ZM220.542 166.883L173.941 193.748L197.998 210.818L244.598 183.953L220.542 166.883Z" fill="#84A875"/>
<path d="M197.998 208.873C195.621 207.432 193.316 205.848 192.38 204.911C193.892 204.263 195.765 203.831 197.71 203.831C200.159 203.831 202.535 204.407 204.336 205.416C203.256 206.28 200.663 207.648 197.998 208.873Z" fill="#84A875"/>
<path d="M183.089 198.07C181.72 198.07 178.191 195.981 175.31 194.036C178.263 192.307 182.08 190.363 183.665 190.363C183.737 190.363 183.737 190.363 183.737 190.363C185.105 191.371 185.826 192.668 185.753 194.108C185.826 195.621 184.817 197.061 183.089 198.07Z" fill="#84A875"/>
<path d="M235.307 187.121C235.235 187.121 235.163 187.121 235.163 187.121C233.65 186.041 232.858 184.745 232.93 183.448C233.002 182.152 233.938 180.927 235.523 179.919C236.747 179.919 239.917 181.864 242.725 183.952C240.133 185.537 236.819 187.121 235.307 187.121Z" fill="#84A875"/>
<path d="M221.046 174.373C218.525 174.373 216.148 173.797 214.276 172.716C215.212 171.78 217.733 170.051 220.398 168.611C223.063 170.339 225.512 172.212 226.448 173.292C224.935 173.941 223.063 174.373 221.046 174.373Z" fill="#84A875"/>
<path d="M213.556 194.54C210.314 194.54 206.857 193.459 204.264 191.587C201.959 190.002 200.663 187.985 200.735 186.257C200.807 185.176 201.311 184.384 202.464 183.736C203.616 183.088 205.129 182.728 206.929 182.728C210.17 182.728 213.628 183.808 216.22 185.681C218.525 187.265 219.822 189.282 219.75 191.01C219.678 192.091 219.173 192.883 218.021 193.531C216.869 194.18 215.356 194.54 213.556 194.54Z" fill="#84A875"/>
<path d="M206.857 183.952C209.738 183.952 213.051 185.033 215.428 186.689C217.733 188.274 218.453 189.93 218.453 190.867C218.453 191.083 218.453 191.731 217.373 192.379C216.436 192.955 215.14 193.244 213.555 193.244C210.674 193.244 207.361 192.163 204.984 190.507C202.679 188.922 201.959 187.265 201.959 186.329C201.959 186.113 201.959 185.465 203.04 184.817C203.976 184.24 205.344 183.952 206.857 183.952ZM206.857 181.359C204.912 181.359 203.112 181.719 201.743 182.584C198.07 184.817 198.862 189.282 203.472 192.595C206.425 194.684 210.17 195.836 213.555 195.836C215.5 195.836 217.301 195.476 218.669 194.612C222.342 192.379 221.55 187.914 216.94 184.601C213.987 182.512 210.17 181.359 206.857 181.359Z" fill="#B9DB8D"/>
<path d="M206.857 182.872C210.026 182.872 213.483 183.952 216.076 185.825C218.309 187.409 219.605 189.354 219.533 191.011C219.461 192.019 218.957 192.811 217.949 193.388C216.868 194.036 215.356 194.396 213.555 194.396C210.386 194.396 206.929 193.316 204.336 191.443C202.103 189.858 200.807 187.914 200.879 186.257C200.951 185.249 201.455 184.456 202.463 183.88C203.616 183.232 205.128 182.872 206.857 182.872ZM206.857 181.359C204.912 181.359 203.112 181.719 201.743 182.584C198.07 184.817 198.862 189.282 203.472 192.595C206.425 194.684 210.17 195.836 213.555 195.836C215.5 195.836 217.301 195.476 218.669 194.612C222.342 192.379 221.55 187.914 216.94 184.601C213.987 182.512 210.17 181.359 206.857 181.359Z" fill="#84A875"/>
<path d="M226.232 179.342C227.816 180.567 228.104 182.151 226.808 182.872C225.512 183.592 223.135 183.232 221.55 182.079C219.966 180.855 219.677 179.27 220.974 178.55C222.27 177.758 224.647 178.19 226.232 179.342Z" fill="#84A875"/>
<path d="M222.631 179.631C223.567 179.631 224.575 179.991 225.367 180.567C226.016 181.071 226.16 181.503 226.232 181.575C226.232 181.575 226.232 181.575 226.16 181.647C225.944 181.791 225.656 181.863 225.223 181.863C224.287 181.863 223.279 181.503 222.486 180.927C221.838 180.423 221.694 179.991 221.694 179.919C221.694 179.919 221.694 179.919 221.766 179.847C221.91 179.703 222.27 179.631 222.631 179.631ZM222.631 178.118C221.982 178.118 221.406 178.262 220.974 178.478C219.677 179.199 219.966 180.783 221.55 182.008C222.631 182.8 223.999 183.232 225.151 183.232C225.8 183.232 226.376 183.088 226.808 182.872C228.104 182.152 227.816 180.567 226.232 179.343C225.223 178.55 223.855 178.118 222.631 178.118Z" fill="#84A875"/>
<path d="M198.502 195.477C200.086 196.701 200.374 198.285 199.078 199.006C197.782 199.726 195.405 199.366 193.82 198.213C192.236 196.989 191.947 195.404 193.244 194.684C194.54 193.892 196.917 194.252 198.502 195.477Z" fill="#84A875"/>
<path d="M194.901 195.765C195.837 195.765 196.845 196.125 197.637 196.701C198.286 197.205 198.43 197.638 198.502 197.71C198.502 197.71 198.502 197.71 198.43 197.782C198.214 197.926 197.926 197.998 197.493 197.998C196.557 197.998 195.549 197.638 194.756 197.061C194.108 196.557 193.964 196.125 193.892 196.053C193.892 196.053 193.892 196.053 193.964 195.981C194.18 195.837 194.54 195.765 194.901 195.765ZM194.901 194.252C194.252 194.252 193.676 194.396 193.244 194.613C191.947 195.333 192.236 196.917 193.82 198.142C194.901 198.934 196.269 199.366 197.421 199.366C198.07 199.366 198.646 199.222 199.078 199.006C200.374 198.286 200.086 196.701 198.502 195.477C197.493 194.685 196.125 194.252 194.901 194.252Z" fill="#84A875"/>
<path d="M198.142 210.818L244.526 184.097L244.454 199.582L198.07 226.303L198.142 210.818Z" fill="#778F6B"/>
<path d="M244.382 184.241L244.31 199.51L198.142 226.159L198.214 210.89L244.382 184.241ZM244.598 183.953L197.998 210.818L197.926 226.52L244.454 199.654L244.598 183.953Z" fill="#778F6B"/>
<path d="M173.942 193.749L197.998 210.819V226.448L173.942 209.378V193.749Z" fill="#7E9659"/>
<path d="M197.998 226.592L197.926 226.52L173.869 209.45V193.676L173.941 193.748L197.998 210.818V226.592ZM174.013 209.378L197.926 226.376V210.818L174.013 193.82V209.378Z" fill="#8BA863"/>
<g opacity="0.5">
<g opacity="0.5">
<path opacity="0.5" d="M197.998 225.367L197.782 225.223L173.797 208.153L174.229 207.577L197.998 224.503L244.382 197.782L244.742 198.43L197.998 225.367Z" fill="#B9DB8D"/>
</g>
<g opacity="0.5">
<path opacity="0.5" d="M197.998 223.351L197.782 223.207L173.797 206.137L174.229 205.561L197.998 222.487L244.382 195.693L244.742 196.342L197.998 223.351Z" fill="#B9DB8D"/>
</g>
<g opacity="0.5">
<path opacity="0.5" d="M197.998 221.334L197.782 221.19L173.797 204.12L174.229 203.472L197.998 220.47L244.382 193.677L244.742 194.325L197.998 221.334Z" fill="#B9DB8D"/>
</g>
<g opacity="0.5">
<path opacity="0.5" d="M197.998 219.317L197.782 219.173L173.797 202.103L174.229 201.455L197.998 218.381L244.382 191.66L244.742 192.308L197.998 219.317Z" fill="#B9DB8D"/>
</g>
<g opacity="0.5">
<path opacity="0.5" d="M197.998 217.229L197.782 217.085L173.797 200.015L174.229 199.439L197.998 216.364L244.382 189.643L244.742 190.291L197.998 217.229Z" fill="#B9DB8D"/>
</g>
<g opacity="0.5">
<path opacity="0.5" d="M197.998 215.212L197.782 215.068L173.797 197.998L174.229 197.422L197.998 214.348L244.382 187.626L244.742 188.275L197.998 215.212Z" fill="#B9DB8D"/>
</g>
<g opacity="0.5">
<path opacity="0.5" d="M197.998 213.195L197.782 213.051L173.797 195.981L174.229 195.405L197.998 212.33L244.382 185.537L244.742 186.185L197.998 213.195Z" fill="#B9DB8D"/>
</g>
<g opacity="0.5">
<path opacity="0.5" d="M197.998 211.179L197.782 211.035L173.797 193.965L174.23 193.316L197.998 210.314L244.382 183.521L244.742 184.169L197.998 211.179Z" fill="#B9DB8D"/>
</g>
</g>
<g opacity="0.5">
<g opacity="0.5">
<g opacity="0.5">
<path opacity="0.5" d="M244.598 184.313L197.998 211.178V226.448L244.526 199.582L244.598 184.313Z" fill="#737D41"/>
</g>
</g>
</g>
<path d="M226.88 195.045L218.669 199.654L194.613 182.584L202.823 177.975L226.88 195.045Z" fill="#EBEDD8"/>
<path d="M226.448 194.108L218.093 198.718V214.852L226.448 210.098V194.108Z" fill="#AF9A7D"/>
<path d="M173.941 210.53L197.998 227.6V226.448L173.941 209.378V210.53Z" fill="#657541"/>
<path d="M244.526 200.735L197.998 227.6V226.448L244.526 199.583V200.735Z" fill="#5D6D3F"/>
</svg>
